<?xml version="1.0" encoding="UTF-8" standalone="no"?>
<svg
   xmlns:dc="http://purl.org/dc/elements/1.1/"
   xmlns:cc="http://creativecommons.org/ns#"
   xmlns:rdf="http://www.w3.org/1999/02/22-rdf-syntax-ns#"
   xmlns:svg="http://www.w3.org/2000/svg"
   xmlns="http://www.w3.org/2000/svg"
   xmlns:sodipodi="http://sodipodi.sourceforge.net/DTD/sodipodi-0.dtd"
   xmlns:inkscape="http://www.inkscape.org/namespaces/inkscape"
   width="400mm"
   height="400mm"
   viewBox="0 0 400 400"
   version="1.1"
   id="svg8"
   inkscape:version="1.0.1 (3bc2e813f5, 2020-09-07)"
   sodipodi:docname="skelet.svg">
  <defs
     id="defs2">
    <marker
       style="overflow:visible"
       id="Arrow1Lstart"
       refX="0.0"
       refY="0.0"
       orient="auto"
       inkscape:stockid="Arrow1Lstart"
       inkscape:isstock="true">
      <path
         transform="scale(0.8) translate(12.5,0)"
         style="fill-rule:evenodd;stroke:#3853c0;stroke-width:1pt;stroke-opacity:1;fill:#3853c0;fill-opacity:1"
         d="M 0.0,0.0 L 5.0,-5.0 L -12.5,0.0 L 5.0,5.0 L 0.0,0.0 z "
         id="path1106" />
    </marker>
  </defs>
  <sodipodi:namedview
     id="base"
     pagecolor="#ffffff"
     bordercolor="#666666"
     borderopacity="1.0"
     inkscape:pageopacity="0.0"
     inkscape:pageshadow="2"
     inkscape:zoom="0.5"
     inkscape:cx="611.2978"
     inkscape:cy="761.93774"
     inkscape:document-units="mm"
     inkscape:current-layer="layer1"
     inkscape:document-rotation="0"
     showgrid="false"
     inkscape:snap-text-baseline="true"
     inkscape:snap-page="true"
     inkscape:snap-center="true"
     inkscape:snap-object-midpoints="true"
     inkscape:snap-midpoints="true"
     inkscape:snap-smooth-nodes="true"
     inkscape:snap-intersection-paths="true"
     inkscape:object-paths="true"
     inkscape:snap-bbox="true"
     inkscape:snap-bbox-midpoints="true"
     inkscape:snap-bbox-edge-midpoints="true"
     inkscape:bbox-nodes="true"
     inkscape:bbox-paths="true"
     inkscape:snap-nodes="true"
     inkscape:snap-others="true"
     inkscape:window-width="1904"
     inkscape:window-height="1000"
     inkscape:window-x="8"
     inkscape:window-y="35"
     inkscape:window-maximized="0" />
  <metadata
     id="metadata5">
    <rdf:RDF>
      <cc:Work
         rdf:about="">
        <dc:format>image/svg+xml</dc:format>
        <dc:type
           rdf:resource="http://purl.org/dc/dcmitype/StillImage" />
        <dc:title></dc:title>
      </cc:Work>
    </rdf:RDF>
  </metadata>
  <g
     inkscape:label="Layer 1"
     inkscape:groupmode="layer"
     id="layer1"
     transform="translate(-29.29154,-18.4032)">
    <path
       id="path1387"
       style="color:#000000;font-style:normal;font-variant:normal;font-weight:normal;font-stretch:normal;font-size:medium;line-height:normal;font-family:sans-serif;font-variant-ligatures:normal;font-variant-position:normal;font-variant-caps:normal;font-variant-numeric:normal;font-variant-alternates:normal;font-variant-east-asian:normal;font-feature-settings:normal;font-variation-settings:normal;text-indent:0;text-align:start;text-decoration:none;text-decoration-line:none;text-decoration-style:solid;text-decoration-color:#000000;letter-spacing:normal;word-spacing:normal;text-transform:none;writing-mode:lr-tb;direction:ltr;text-orientation:mixed;dominant-baseline:auto;baseline-shift:baseline;text-anchor:start;white-space:normal;shape-padding:0;shape-margin:0;inline-size:0;clip-rule:nonzero;display:inline;overflow:visible;visibility:visible;opacity:0.996;isolation:auto;mix-blend-mode:normal;color-interpolation:sRGB;color-interpolation-filters:linearRGB;solid-color:#000000;solid-opacity:1;vector-effect:none;fill:#3853c0;fill-opacity:1;fill-rule:nonzero;stroke:none;stroke-width:128.504;stroke-linecap:butt;stroke-linejoin:miter;stroke-miterlimit:4;stroke-dasharray:none;stroke-dashoffset:0;stroke-opacity:1;paint-order:markers fill stroke;color-rendering:auto;image-rendering:auto;shape-rendering:auto;text-rendering:auto;enable-background:accumulate;stop-color:#000000;stop-opacity:1"
       d="m 665.93945,224.61914 a 488.41708,488.41708 0 0 0 -1.54492,0.002 488.41708,488.41708 0 0 0 -1.85937,0.01 488.41708,488.41708 0 0 0 -1.85743,0.0176 488.41708,488.41708 0 0 0 -1.85742,0.0234 488.41708,488.41708 0 0 0 -1.85937,0.0293 488.41708,488.41708 0 0 0 -1.85742,0.0391 488.41708,488.41708 0 0 0 -1.85743,0.0449 488.41708,488.41708 0 0 0 -1.85742,0.0508 488.41708,488.41708 0 0 0 -1.85742,0.0586 488.41708,488.41708 0 0 0 -1.85742,0.0664 488.41708,488.41708 0 0 0 -1.85742,0.0742 488.41708,488.41708 0 0 0 -1.85743,0.0801 488.41708,488.41708 0 0 0 -1.85546,0.0859 488.41708,488.41708 0 0 0 -1.85547,0.0937 488.41708,488.41708 0 0 0 -1.85743,0.10156 488.41708,488.41708 0 0 0 -1.85351,0.10938 488.41708,488.41708 0 0 0 -1.85547,0.11523 488.41708,488.41708 0 0 0 -1.85352,0.12305 488.41708,488.41708 0 0 0 -1.85546,0.12891 488.41708,488.41708 0 0 0 -1.85352,0.13672 488.41708,488.41708 0 0 0 -1.85156,0.14257 488.41708,488.41708 0 0 0 -1.85352,0.15039 488.41708,488.41708 0 0 0 -1.85156,0.15821 488.41708,488.41708 0 0 0 -1.84961,0.16601 488.41708,488.41708 0 0 0 -1.85156,0.17188 488.41708,488.41708 0 0 0 -1.84961,0.17773 488.41708,488.41708 0 0 0 -1.84961,0.18555 488.41708,488.41708 0 0 0 -1.84766,0.19336 488.41708,488.41708 0 0 0 -1.84765,0.19922 488.41708,488.41708 0 0 0 -1.84766,0.20703 488.41708,488.41708 0 0 0 -1.8457,0.21484 488.41708,488.41708 0 0 0 -1.84375,0.22071 488.41708,488.41708 0 0 0 -1.84571,0.22851 488.41708,488.41708 0 0 0 -1.84375,0.23438 488.41708,488.41708 0 0 0 -1.84179,0.24218 488.41708,488.41708 0 0 0 -1.8418,0.25 488.41708,488.41708 0 0 0 -1.83984,0.25586 488.41708,488.41708 0 0 0 -1.83985,0.26368 488.41708,488.41708 0 0 0 -1.83984,0.26953 488.41708,488.41708 0 0 0 -1.83789,0.27734 488.41708,488.41708 0 0 0 -1.83594,0.2832 488.41708,488.41708 0 0 0 -1.83594,0.29102 488.41708,488.41708 0 0 0 -1.83398,0.29883 488.41708,488.41708 0 0 0 -1.83203,0.30468 488.41708,488.41708 0 0 0 -1.83203,0.3125 488.41708,488.41708 0 0 0 -1.83203,0.31836 488.41708,488.41708 0 0 0 -1.82813,0.32618 488.41708,488.41708 0 0 0 -1.83008,0.33203 488.41708,488.41708 0 0 0 -1.82617,0.33984 488.41708,488.41708 0 0 0 -1.82617,0.34766 488.41708,488.41708 0 0 0 -1.82422,0.35351 488.41708,488.41708 0 0 0 -1.82227,0.36133 488.41708,488.41708 0 0 0 -1.82226,0.36719 488.41708,488.41708 0 0 0 -1.82031,0.375 488.41708,488.41708 0 0 0 -1.81836,0.38086 488.41708,488.41708 0 0 0 -1.81836,0.38867 488.41708,488.41708 0 0 0 -1.81446,0.39453 488.41708,488.41708 0 0 0 -1.81445,0.40234 488.41708,488.41708 0 0 0 -1.81445,0.40821 488.41708,488.41708 0 0 0 -1.81055,0.41601 488.41708,488.41708 0 0 0 -1.80859,0.42383 488.41708,488.41708 0 0 0 -1.8086,0.42969 488.41708,488.41708 0 0 0 -1.80664,0.4375 488.41708,488.41708 0 0 0 -1.80468,0.44336 488.41708,488.41708 0 0 0 -1.80274,0.44922 488.41708,488.41708 0 0 0 -1.80078,0.45703 488.41708,488.41708 0 0 0 -1.80078,0.46484 488.41708,488.41708 0 0 0 -1.79688,0.47071 488.41708,488.41708 0 0 0 -1.79687,0.47851 488.41708,488.41708 0 0 0 -1.79297,0.48438 488.41708,488.41708 0 0 0 -1.79297,0.49023 488.41708,488.41708 0 0 0 -1.79101,0.49805 488.41708,488.41708 0 0 0 -1.78711,0.50586 488.41708,488.41708 0 0 0 -1.78711,0.51171 488.41708,488.41708 0 0 0 -1.78516,0.51954 488.41708,488.41708 0 0 0 -1.78125,0.52539 488.41708,488.41708 0 0 0 -1.78125,0.53125 488.41708,488.41708 0 0 0 -1.7793,0.53906 488.41708,488.41708 0 0 0 -1.77539,0.54492 488.41708,488.41708 0 0 0 -1.77539,0.55274 488.41708,488.41708 0 0 0 -1.77148,0.56054 488.41708,488.41708 0 0 0 -1.76953,0.56446 488.41708,488.41708 0 0 0 -1.76953,0.57421 488.41708,488.41708 0 0 0 -1.76563,0.57813 488.41708,488.41708 0 0 0 -1.76367,0.58594 488.41708,488.41708 0 0 0 -1.75977,0.59375 488.41708,488.41708 0 0 0 -1.75976,0.59961 488.41708,488.41708 0 0 0 -1.75586,0.60546 488.41708,488.41708 0 0 0 -1.75586,0.61329 488.41708,488.41708 0 0 0 -1.75195,0.61914 488.41708,488.41708 0 0 0 -1.75,0.62695 488.41708,488.41708 0 0 0 -1.7461,0.63281 488.41708,488.41708 0 0 0 -1.74609,0.63867 488.41708,488.41708 0 0 0 -1.74219,0.64649 488.41708,488.41708 0 0 0 -1.74023,0.65234 488.41708,488.41708 0 0 0 -1.73633,0.66016 488.41708,488.41708 0 0 0 -1.73438,0.66601 488.41708,488.41708 0 0 0 -1.73242,0.67188 488.41708,488.41708 0 0 0 -1.73047,0.67969 488.41708,488.41708 0 0 0 -1.72656,0.68554 488.41708,488.41708 0 0 0 -1.72461,0.69336 488.41708,488.41708 0 0 0 -1.72266,0.69922 488.41708,488.41708 0 0 0 -1.71875,0.70508 488.41708,488.41708 0 0 0 -1.71679,0.71094 488.41708,488.41708 0 0 0 -1.71485,0.71875 488.41708,488.41708 0 0 0 -1.71093,0.72461 488.41708,488.41708 0 0 0 -1.70899,0.73242 488.41708,488.41708 0 0 0 -1.70508,0.73828 488.41708,488.41708 0 0 0 -1.70312,0.74414 488.41708,488.41708 0 0 0 -1.69922,0.75195 488.41708,488.41708 0 0 0 -1.69727,0.75586 488.41708,488.41708 0 0 0 -1.69336,0.76368 488.41708,488.41708 0 0 0 -1.6914,0.77148 488.41708,488.41708 0 0 0 -1.68945,0.77734 488.41708,488.41708 0 0 0 -1.6836,0.78321 488.41708,488.41708 0 0 0 -1.68359,0.78906 488.41708,488.41708 0 0 0 -1.67969,0.79492 488.41708,488.41708 0 0 0 -1.67578,0.80273 488.41708,488.41708 0 0 0 -1.67188,0.8086 488.41708,488.41708 0 0 0 -1.67187,0.8164 488.41708,488.41708 0 0 0 -1.66602,0.82032 488.41708,488.41708 0 0 0 -1.66406,0.82812 488.41708,488.41708 0 0 0 -1.66016,0.83399 488.41708,488.41708 0 0 0 -1.6582,0.83984 488.41708,488.41708 0 0 0 -1.6543,0.84766 488.41708,488.41708 0 0 0 -1.65039,0.85351 488.41708,488.41708 0 0 0 -1.64843,0.85938 488.41708,488.41708 0 0 0 -1.64453,0.86523 488.41708,488.41708 0 0 0 -1.64063,0.8711 488.41708,488.41708 0 0 0 -1.63867,0.8789 488.41708,488.41708 0 0 0 -1.63477,0.88281 488.41708,488.41708 0 0 0 -1.63086,0.89063 488.41708,488.41708 0 0 0 -1.62695,0.89844 488.41708,488.41708 0 0 0 -1.625,0.90234 488.41708,488.41708 0 0 0 -1.62109,0.9082 488.41708,488.41708 0 0 0 -1.61719,0.91602 488.41708,488.41708 0 0 0 -1.61328,0.92187 488.41708,488.41708 0 0 0 -1.61133,0.92579 488.41708,488.41708 0 0 0 -1.60547,0.93359 488.41708,488.41708 0 0 0 -1.60351,0.94141 488.41708,488.41708 0 0 0 -1.59961,0.94531 488.41708,488.41708 0 0 0 -1.59766,0.95117 488.41708,488.41708 0 0 0 -1.5918,0.95898 488.41708,488.41708 0 0 0 -1.58789,0.96289 488.41708,488.41708 0 0 0 -1.58594,0.97071 488.41708,488.41708 0 0 0 -1.58203,0.97656 488.41708,488.41708 0 0 0 -1.57617,0.98047 488.41708,488.41708 0 0 0 -1.57422,0.98828 488.41708,488.41708 0 0 0 -1.57031,0.99414 488.41708,488.41708 0 0 0 -1.56641,1 488.41708,488.41708 0 0 0 -1.5625,1.00586 488.41708,488.41708 0 0 0 -1.55859,1.01172 488.41708,488.41708 0 0 0 -1.55469,1.01953 488.41708,488.41708 0 0 0 -1.55273,1.02344 488.41708,488.41708 0 0 0 -1.54688,1.02929 488.41708,488.41708 0 0 0 -1.54297,1.03516 488.41708,488.41708 0 0 0 -1.53906,1.04102 488.41708,488.41708 0 0 0 -1.53515,1.04882 488.41708,488.41708 0 0 0 -1.53125,1.05274 488.41708,488.41708 0 0 0 -1.52735,1.05859 488.41708,488.41708 0 0 0 -1.52343,1.06446 488.41708,488.41708 0 0 0 -1.51758,1.07031 488.41708,488.41708 0 0 0 -1.51563,1.07617 488.41708,488.41708 0 0 0 -1.51172,1.08203 488.41708,488.41708 0 0 0 -1.50586,1.08789 488.41708,488.41708 0 0 0 -1.5039,1.09375 488.41708,488.41708 0 0 0 -1.49805,1.09961 488.41708,488.41708 0 0 0 -1.49414,1.10352 488.41708,488.41708 0 0 0 -1.49023,1.11133 488.41708,488.41708 0 0 0 -1.48438,1.11523 488.41708,488.41708 0 0 0 -1.48242,1.12305 488.41708,488.41708 0 0 0 -1.47656,1.12695 488.41708,488.41708 0 0 0 -1.47461,1.13281 488.41708,488.41708 0 0 0 -1.46875,1.13867 488.41708,488.41708 0 0 0 -1.46289,1.14454 488.41708,488.41708 0 0 0 -1.46094,1.15039 488.41708,488.41708 0 0 0 -1.45508,1.15429 488.41708,488.41708 0 0 0 -1.45117,1.16211 488.41708,488.41708 0 0 0 -1.44727,1.16602 488.41708,488.41708 0 0 0 -1.4414,1.17187 488.41708,488.41708 0 0 0 -1.4375,1.17774 488.41708,488.41708 0 0 0 -1.4336,1.18359 488.41708,488.41708 0 0 0 -1.42968,1.1875 488.41708,488.41708 0 0 0 -1.42383,1.19336 488.41708,488.41708 0 0 0 -1.41992,1.19922 488.41708,488.41708 0 0 0 -1.41602,1.20508 488.41708,488.41708 0 0 0 -1.41016,1.20898 488.41708,488.41708 0 0 0 -1.40625,1.2168 488.41708,488.41708 0 0 0 -1.40039,1.21875 488.41708,488.41708 0 0 0 -1.39648,1.22656 488.41708,488.41708 0 0 0 -1.39258,1.23242 488.41708,488.41708 0 0 0 -1.38672,1.23633 488.41708,488.41708 0 0 0 -1.38281,1.24024 488.41708,488.41708 0 0 0 -1.37695,1.24804 488.41708,488.41708 0 0 0 -1.375,1.25196 488.41708,488.41708 0 0 0 -1.36719,1.25781 488.41708,488.41708 0 0 0 -1.36328,1.26367 488.41708,488.41708 0 0 0 -1.35938,1.26758 488.41708,488.41708 0 0 0 -1.35351,1.27148 488.41708,488.41708 0 0 0 -1.34961,1.2793 488.41708,488.41708 0 0 0 -1.34375,1.2832 488.41708,488.41708 0 0 0 -1.33985,1.28906 488.41708,488.41708 0 0 0 -1.33398,1.29297 488.41708,488.41708 0 0 0 -1.33008,1.29883 488.41708,488.41708 0 0 0 -1.32422,1.30274 488.41708,488.41708 0 0 0 -1.31836,1.30859 488.41708,488.41708 0 0 0 -1.31445,1.31445 488.41708,488.41708 0 0 0 -1.31055,1.31836 488.41708,488.41708 0 0 0 -1.30468,1.32422 488.41708,488.41708 0 0 0 -1.29883,1.32813 488.41708,488.41708 0 0 0 -1.29492,1.33398 488.41708,488.41708 0 0 0 -1.28907,1.33789 488.41708,488.41708 0 0 0 -1.2832,1.34375 488.41708,488.41708 0 0 0 -1.2793,1.34766 488.41708,488.41708 0 0 0 -1.27343,1.35351 488.41708,488.41708 0 0 0 -1.26954,1.35742 488.41708,488.41708 0 0 0 -1.26367,1.36329 488.41708,488.41708 0 0 0 -1.25781,1.36718 488.41708,488.41708 0 0 0 -1.25391,1.37305 488.41708,488.41708 0 0 0 -1.24804,1.37695 488.41708,488.41708 0 0 0 -1.24219,1.38086 488.41708,488.41708 0 0 0 -1.23828,1.38672 488.41708,488.41708 0 0 0 -1.23047,1.39063 488.41708,488.41708 0 0 0 -1.22852,1.39648 488.41708,488.41708 0 0 0 -1.2207,1.40039 488.41708,488.41708 0 0 0 -1.2168,1.4043 488.41708,488.41708 0 0 0 -1.21093,1.41015 488.41708,488.41708 0 0 0 -1.20508,1.41407 488.41708,488.41708 0 0 0 -1.19922,1.41992 488.41708,488.41708 0 0 0 -1.19531,1.42383 488.41708,488.41708 0 0 0 -1.18946,1.42773 488.41708,488.41708 0 0 0 -1.18359,1.43164 488.41708,488.41708 0 0 0 -1.17773,1.4375 488.41708,488.41708 0 0 0 -1.17383,1.44141 488.41708,488.41708 0 0 0 -1.16602,1.44726 488.41708,488.41708 0 0 0 -1.16211,1.44922 488.41708,488.41708 0 0 0 -1.15625,1.45508 488.41708,488.41708 0 0 0 -1.15234,1.45899 488.41708,488.41708 0 0 0 -1.14453,1.46484 488.41708,488.41708 0 0 0 -1.13867,1.4668 488.41708,488.41708 0 0 0 -1.13477,1.47265 488.41708,488.41708 0 0 0 -1.12891,1.47656 488.41708,488.41708 0 0 0 -1.12304,1.48047 488.41708,488.41708 0 0 0 -1.11719,1.48633 488.41708,488.41708 0 0 0 -1.11133,1.48828 488.41708,488.41708 0 0 0 -1.10547,1.49414 488.41708,488.41708 0 0 0 -1.09961,1.49805 488.41708,488.41708 0 0 0 -1.0957,1.50195 488.41708,488.41708 0 0 0 -1.08789,1.50586 488.41708,488.41708 0 0 0 -1.08203,1.50977 488.41708,488.41708 0 0 0 -1.07813,1.51367 488.41708,488.41708 0 0 0 -1.07226,1.51953 488.41708,488.41708 0 0 0 -1.06446,1.52149 488.41708,488.41708 0 0 0 -1.06054,1.52734 488.41708,488.41708 0 0 0 -1.05274,1.53125 488.41708,488.41708 0 0 0 -1.04882,1.5332 488.41708,488.41708 0 0 0 -1.04297,1.53907 488.41708,488.41708 0 0 0 -1.03711,1.54296 488.41708,488.41708 0 0 0 -1.0293,1.54493 488.41708,488.41708 0 0 0 -1.02539,1.55078 488.41708,488.41708 0 0 0 -1.01953,1.55469 488.41708,488.41708 0 0 0 -1.01172,1.55859 488.41708,488.41708 0 0 0 -1.00781,1.56055 488.41708,488.41708 0 0 0 -1,1.5664 488.41708,488.41708 0 0 0 -0.9961,1.57031 488.41708,488.41708 0 0 0 -0.98828,1.57227 488.41708,488.41708 0 0 0 -0.98437,1.57812 488.41708,488.41708 0 0 0 -0.97657,1.58008 488.41708,488.41708 0 0 0 -0.9707,1.58399 488.41708,488.41708 0 0 0 -0.96484,1.58984 488.41708,488.41708 0 0 0 -0.95899,1.5918 488.41708,488.41708 0 0 0 -0.95312,1.59375 488.41708,488.41708 0 0 0 -0.94727,1.59961 488.41708,488.41708 0 0 0 -0.93945,1.60351 488.41708,488.41708 0 0 0 -0.93555,1.60547 488.41708,488.41708 0 0 0 -0.92773,1.60938 488.41708,488.41708 0 0 0 -0.92383,1.61328 488.41708,488.41708 0 0 0 -0.91602,1.61719 488.41708,488.41708 0 0 0 -0.91015,1.62109 488.41708,488.41708 0 0 0 -0.90235,1.62305 488.41708,488.41708 0 0 0 -0.89843,1.62695 488.41708,488.41708 0 0 0 -0.89258,1.63086 488.41708,488.41708 0 0 0 -0.88477,1.63476 488.41708,488.41708 0 0 0 -0.8789,1.63672 488.41708,488.41708 0 0 0 -0.87305,1.64063 488.41708,488.41708 0 0 0 -0.86719,1.64453 488.41708,488.41708 0 0 0 -0.85937,1.64648 488.41708,488.41708 0 0 0 -0.85352,1.65039 488.41708,488.41708 0 0 0 -0.84765,1.6543 488.41708,488.41708 0 0 0 -0.8418,1.65625 488.41708,488.41708 0 0 0 -0.83594,1.66016 488.41708,488.41708 0 0 0 -0.82812,1.66406 488.41708,488.41708 0 0 0 -0.82227,1.66602 488.41708,488.41708 0 0 0 -0.81641,1.66992 488.41708,488.41708 0 0 0 -0.81054,1.67187 488.41708,488.41708 0 0 0 -0.80274,1.67578 488.41708,488.41708 0 0 0 -0.79687,1.67969 488.41708,488.41708 0 0 0 -0.79102,1.68164 488.41708,488.41708 0 0 0 -0.78515,1.68555 488.41708,488.41708 0 0 0 -0.77735,1.6875 488.41708,488.41708 0 0 0 -0.77148,1.68945 488.41708,488.41708 0 0 0 -0.76563,1.69531 488.41708,488.41708 0 0 0 -0.75781,1.69532 488.41708,488.41708 0 0 0 -0.75195,1.69922 488.41708,488.41708 0 0 0 -0.7461,1.70312 488.41708,488.41708 0 0 0 -0.73828,1.70508 488.41708,488.41708 0 0 0 -0.73242,1.70703 488.41708,488.41708 0 0 0 -0.72656,1.71094 488.41708,488.41708 0 0 0 -0.72071,1.71289 488.41708,488.41708 0 0 0 -0.71289,1.7168 488.41708,488.41708 0 0 0 -0.70507,1.71874 488.41708,488.41708 0 0 0 -0.70118,1.72266 488.41708,488.41708 0 0 0 -0.69336,1.72266 488.41708,488.41708 0 0 0 -0.6875,1.72656 488.41708,488.41708 0 0 0 -0.67968,1.73047 488.41708,488.41708 0 0 0 -0.67383,1.73242 488.41708,488.41708 0 0 0 -0.66602,1.73438 488.41708,488.41708 0 0 0 -0.66211,1.73632 488.41708,488.41708 0 0 0 -0.65234,1.74024 488.41708,488.41708 0 0 0 -0.64844,1.74219 488.41708,488.41708 0 0 0 -0.64062,1.74414 488.41708,488.41708 0 0 0 -0.63281,1.74609 488.41708,488.41708 0 0 0 -0.62891,1.75 488.41708,488.41708 0 0 0 -0.61914,1.75195 488.41708,488.41708 0 0 0 -0.61524,1.75391 488.41708,488.41708 0 0 0 -0.60742,1.75586 488.41708,488.41708 0 0 0 -0.59961,1.75781 488.41708,488.41708 0 0 0 -0.59375,1.76172 488.41708,488.41708 0 0 0 -0.58789,1.76367 488.41708,488.41708 0 0 0 -0.58008,1.76563 488.41708,488.41708 0 0 0 -0.57421,1.76758 488.41708,488.41708 0 0 0 -0.56641,1.76953 488.41708,488.41708 0 0 0 -0.56055,1.77148 488.41708,488.41708 0 0 0 -0.55468,1.77344 488.41708,488.41708 0 0 0 -0.54688,1.77734 488.41708,488.41708 0 0 0 -0.53906,1.77735 488.41708,488.41708 0 0 0 -0.53321,1.78125 488.41708,488.41708 0 0 0 -0.52734,1.78125 488.41708,488.41708 0 0 0 -0.51953,1.78515 488.41708,488.41708 0 0 0 -0.51367,1.78516 488.41708,488.41708 0 0 0 -0.50586,1.78906 488.41708,488.41708 0 0 0 -0.5,1.78906 488.41708,488.41708 0 0 0 -0.49219,1.79297 488.41708,488.41708 0 0 0 -0.48437,1.79297 488.41708,488.41708 0 0 0 -0.48047,1.79492 488.41708,488.41708 0 0 0 -0.47071,1.79883 488.41708,488.41708 0 0 0 -0.46679,1.79883 488.41708,488.41708 0 0 0 -0.45703,1.80078 488.41708,488.41708 0 0 0 -0.45118,1.80273 488.41708,488.41708 0 0 0 -0.44531,1.80469 488.41708,488.41708 0 0 0 -0.4375,1.80664 488.41708,488.41708 0 0 0 -0.43164,1.80664 488.41708,488.41708 0 0 0 -0.42383,1.81055 488.41708,488.41708 0 0 0 -0.41797,1.81055 488.41708,488.41708 0 0 0 -0.41015,1.8125 488.41708,488.41708 0 0 0 -0.40235,1.81445 488.41708,488.41708 0 0 0 -0.39648,1.81445 488.41708,488.41708 0 0 0 -0.39063,1.81836 488.41708,488.41708 0 0 0 -0.38085,1.81836 488.41708,488.41708 0 0 0 -0.37696,1.81836 488.41708,488.41708 0 0 0 -0.36914,1.82227 488.41708,488.41708 0 0 0 -0.36133,1.82226 488.41708,488.41708 0 0 0 -0.35547,1.82422 488.41708,488.41708 0 0 0 -0.34765,1.82617 488.41708,488.41708 0 0 0 -0.33985,1.82617 488.41708,488.41708 0 0 0 -0.33398,1.82813 488.41708,488.41708 0 0 0 -0.32812,1.83008 488.41708,488.41708 0 0 0 -0.32032,1.83008 488.41708,488.41708 0 0 0 -0.3125,1.83203 488.41708,488.41708 0 0 0 -0.30664,1.83398 488.41708,488.41708 0 0 0 -0.29883,1.83399 488.41708,488.41708 0 0 0 -0.29297,1.83398 488.41708,488.41708 0 0 0 -0.28515,1.83789 488.41708,488.41708 0 0 0 -0.27735,1.83594 488.41708,488.41708 0 0 0 -0.27148,1.83984 488.41708,488.41708 0 0 0 -0.26367,1.83985 488.41708,488.41708 0 0 0 -0.25781,1.83984 488.41708,488.41708 0 0 0 -0.25,1.8418 488.41708,488.41708 0 0 0 -0.24414,1.84179 488.41708,488.41708 0 0 0 -0.23633,1.84375 488.41708,488.41708 0 0 0 -0.22852,1.84375 488.41708,488.41708 0 0 0 -0.22265,1.84571 488.41708,488.41708 0 0 0 -0.21485,1.8457 488.41708,488.41708 0 0 0 -0.20898,1.8457 488.41708,488.41708 0 0 0 -0.20117,1.84766 488.41708,488.41708 0 0 0 -0.19336,1.84766 488.41708,488.41708 0 0 0 -0.1875,1.84961 488.41708,488.41708 0 0 0 -0.17969,1.8496 488.41708,488.41708 0 0 0 -0.17188,1.85157 488.41708,488.41708 0 0 0 -0.16601,1.84961 488.41708,488.41708 0 0 0 -0.16016,1.85156 488.41708,488.41708 0 0 0 -0.15234,1.85351 488.41708,488.41708 0 0 0 -0.14453,1.85157 488.41708,488.41708 0 0 0 -0.13672,1.85351 488.41708,488.41708 0 0 0 -0.13086,1.85352 488.41708,488.41708 0 0 0 -0.12305,1.85547 488.41708,488.41708 0 0 0 -0.11719,1.85351 488.41708,488.41708 0 0 0 -0.10937,1.85547 488.41708,488.41708 0 0 0 -0.10352,1.85547 488.41708,488.41708 0 0 0 -0.0957,1.85547 488.41708,488.41708 0 0 0 -0.0879,1.85742 488.41708,488.41708 0 0 0 -0.0801,1.85547 488.41708,488.41708 0 0 0 -0.0742,1.85742 488.41708,488.41708 0 0 0 -0.0684,1.85742 488.41708,488.41708 0 0 0 -0.0605,1.85743 488.41708,488.41708 0 0 0 -0.0527,1.85742 488.41708,488.41708 0 0 0 -0.0449,1.85742 488.41708,488.41708 0 0 0 -0.0391,1.85937 488.41708,488.41708 0 0 0 -0.0312,1.85743 488.41708,488.41708 0 0 0 -0.0254,1.85742 488.41708,488.41708 0 0 0 -0.0176,1.85937 488.41708,488.41708 0 0 0 -0.0117,1.85742 488.41708,488.41708 0 0 0 -0.002,1.85938 488.41708,488.41708 0 0 0 0.002,1.54492 488.41708,488.41708 0 0 0 0.01,1.85742 488.41708,488.41708 0 0 0 0.0156,1.85938 488.41708,488.41708 0 0 0 0.0234,1.85742 488.41708,488.41708 0 0 0 0.0312,1.85937 488.41708,488.41708 0 0 0 0.0371,1.85743 488.41708,488.41708 0 0 0 0.0449,1.85742 488.41708,488.41708 0 0 0 0.0527,1.85742 488.41708,488.41708 0 0 0 0.0586,1.85742 488.41708,488.41708 0 0 0 0.0664,1.85742 488.41708,488.41708 0 0 0 0.0723,1.85743 488.41708,488.41708 0 0 0 0.0801,1.85742 488.41708,488.41708 0 0 0 0.0879,1.85547 488.41708,488.41708 0 0 0 0.0937,1.85547 488.41708,488.41708 0 0 0 0.10156,1.85546 488.41708,488.41708 0 0 0 0.10742,1.85547 488.41708,488.41708 0 0 0 0.11524,1.85547 488.41708,488.41708 0 0 0 0.12304,1.85352 488.41708,488.41708 0 0 0 0.12891,1.85547 488.41708,488.41708 0 0 0 0.13672,1.85156 488.41708,488.41708 0 0 0 0.14453,1.85351 488.41708,488.41708 0 0 0 0.15039,1.85157 488.41708,488.41708 0 0 0 0.1582,1.85351 488.41708,488.41708 0 0 0 0.16407,1.84961 488.41708,488.41708 0 0 0 0.17187,1.85156 488.41708,488.41708 0 0 0 0.17774,1.84961 488.41708,488.41708 0 0 0 0.1875,1.84961 488.41708,488.41708 0 0 0 0.1914,1.84766 488.41708,488.41708 0 0 0 0.20117,1.84766 488.41708,488.41708 0 0 0 0.20704,1.8457 488.41708,488.41708 0 0 0 0.21289,1.84765 488.41708,488.41708 0 0 0 0.2207,1.84376 488.41708,488.41708 0 0 0 0.22851,1.8457 488.41708,488.41708 0 0 0 0.23633,1.84375 488.41708,488.41708 0 0 0 0.24219,1.84179 488.41708,488.41708 0 0 0 0.24805,1.8418 488.41708,488.41708 0 0 0 0.25586,1.83985 488.41708,488.41708 0 0 0 0.26367,1.83984 488.41708,488.41708 0 0 0 0.26953,1.83984 488.41708,488.41708 0 0 0 0.27734,1.83594 488.41708,488.41708 0 0 0 0.28321,1.83789 488.41708,488.41708 0 0 0 0.29101,1.83399 488.41708,488.41708 0 0 0 0.29883,1.83593 488.41708,488.41708 0 0 0 0.30469,1.83203 488.41708,488.41708 0 0 0 0.3125,1.83204 488.41708,488.41708 0 0 0 0.31836,1.83203 488.41708,488.41708 0 0 0 0.32617,1.82812 488.41708,488.41708 0 0 0 0.33398,1.83008 488.41708,488.41708 0 0 0 0.33985,1.82617 488.41708,488.41708 0 0 0 0.3457,1.82617 488.41708,488.41708 0 0 0 0.35352,1.82422 488.41708,488.41708 0 0 0 0.36132,1.82227 488.41708,488.41708 0 0 0 0.36719,1.82226 488.41708,488.41708 0 0 0 0.375,1.82032 488.41708,488.41708 0 0 0 0.38086,1.81836 488.41708,488.41708 0 0 0 0.38867,1.81835 488.41708,488.41708 0 0 0 0.39453,1.81446 488.41708,488.41708 0 0 0 0.40235,1.81445 488.41708,488.41708 0 0 0 0.41015,1.8125 488.41708,488.41708 0 0 0 0.41602,1.8125 488.41708,488.41708 0 0 0 0.42188,1.80859 488.41708,488.41708 0 0 0 0.42968,1.8086 488.41708,488.41708 0 0 0 0.4375,1.80664 488.41708,488.41708 0 0 0 0.44336,1.80469 488.41708,488.41708 0 0 0 0.45117,1.80273 488.41708,488.41708 0 0 0 0.45703,1.80078 488.41708,488.41708 0 0 0 0.4629,1.80078 488.41708,488.41708 0 0 0 0.4707,1.79688 488.41708,488.41708 0 0 0 0.47851,1.79687 488.41708,488.41708 0 0 0 0.48438,1.79297 488.41708,488.41708 0 0 0 0.49219,1.79297 488.41708,488.41708 0 0 0 0.49804,1.79102 488.41708,488.41708 0 0 0 0.50391,1.78711 488.41708,488.41708 0 0 0 0.51172,1.78711 488.41708,488.41708 0 0 0 0.51953,1.78515 488.41708,488.41708 0 0 0 0.52539,1.78125 488.41708,488.41708 0 0 0 0.53125,1.78125 488.41708,488.41708 0 0 0 0.53906,1.7793 488.41708,488.41708 0 0 0 0.54688,1.77539 488.41708,488.41708 0 0 0 0.55273,1.77539 488.41708,488.41708 0 0 0 0.5586,1.77148 488.41708,488.41708 0 0 0 0.5664,1.76954 488.41708,488.41708 0 0 0 0.57227,1.76757 488.41708,488.41708 0 0 0 0.58008,1.76758 488.41708,488.41708 0 0 0 0.58593,1.76172 488.41708,488.41708 0 0 0 0.5918,1.76172 488.41708,488.41708 0 0 0 0.59961,1.75977 488.41708,488.41708 0 0 0 0.60742,1.75585 488.41708,488.41708 0 0 0 0.61133,1.75586 488.41708,488.41708 0 0 0 0.62109,1.75196 488.41708,488.41708 0 0 0 0.625,1.74804 488.41708,488.41708 0 0 0 0.63282,1.74805 488.41708,488.41708 0 0 0 0.64062,1.74414 488.41708,488.41708 0 0 0 0.64649,1.74414 488.41708,488.41708 0 0 0 0.65234,1.73828 488.41708,488.41708 0 0 0 0.6582,1.73828 488.41708,488.41708 0 0 0 0.66602,1.73438 488.41708,488.41708 0 0 0 0.67383,1.73242 488.41708,488.41708 0 0 0 0.67968,1.73047 488.41708,488.41708 0 0 0 0.68555,1.72656 488.41708,488.41708 0 0 0 0.69141,1.72461 488.41708,488.41708 0 0 0 0.69922,1.72266 488.41708,488.41708 0 0 0 0.70507,1.71875 488.41708,488.41708 0 0 0 0.71289,1.71679 488.41708,488.41708 0 0 0 0.71875,1.71485 488.41708,488.41708 0 0 0 0.72461,1.71094 488.41708,488.41708 0 0 0 0.73047,1.70703 488.41708,488.41708 0 0 0 0.73828,1.70703 488.41708,488.41708 0 0 0 0.74414,1.70312 488.41708,488.41708 0 0 0 0.75196,1.69922 488.41708,488.41708 0 0 0 0.75781,1.69727 488.41708,488.41708 0 0 0 0.76367,1.69336 488.41708,488.41708 0 0 0 0.76953,1.6914 488.41708,488.41708 0 0 0 0.77735,1.6875 488.41708,488.41708 0 0 0 0.7832,1.68555 488.41708,488.41708 0 0 0 0.78906,1.68359 488.41708,488.41708 0 0 0 0.79688,1.67774 488.41708,488.41708 0 0 0 0.80273,1.67773 488.41708,488.41708 0 0 0 0.8086,1.67188 488.41708,488.41708 0 0 0 0.81445,1.66992 488.41708,488.41708 0 0 0 0.82226,1.66797 488.41708,488.41708 0 0 0 0.82618,1.66406 488.41708,488.41708 0 0 0 0.83398,1.66016 488.41708,488.41708 0 0 0 0.8418,1.6582 488.41708,488.41708 0 0 0 0.8457,1.6543 488.41708,488.41708 0 0 0 0.85352,1.65039 488.41708,488.41708 0 0 0 0.85937,1.64844 488.41708,488.41708 0 0 0 0.86524,1.64453 488.41708,488.41708 0 0 0 0.87304,1.64062 488.41708,488.41708 0 0 0 0.87696,1.63867 488.41708,488.41708 0 0 0 0.88476,1.63477 488.41708,488.41708 0 0 0 0.89063,1.63086 488.41708,488.41708 0 0 0 0.89648,1.62695 488.41708,488.41708 0 0 0 0.90234,1.625 488.41708,488.41708 0 0 0 0.91016,1.6211 488.41708,488.41708 0 0 0 0.91406,1.61718 488.41708,488.41708 0 0 0 0.92188,1.61328 488.41708,488.41708 0 0 0 0.92773,1.61133 488.41708,488.41708 0 0 0 0.9336,1.60547 488.41708,488.41708 0 0 0 0.93945,1.60352 488.41708,488.41708 0 0 0 0.94531,1.59961 488.41708,488.41708 0 0 0 0.95313,1.5957 488.41708,488.41708 0 0 0 0.95703,1.59375 488.41708,488.41708 0 0 0 0.96484,1.58789 488.41708,488.41708 0 0 0 0.96875,1.58594 488.41708,488.41708 0 0 0 0.97656,1.58203 488.41708,488.41708 0 0 0 0.98243,1.57617 488.41708,488.41708 0 0 0 0.98828,1.57422 488.41708,488.41708 0 0 0 0.99414,1.57031 488.41708,488.41708 0 0 0 1,1.56641 488.41708,488.41708 0 0 0 1.00586,1.5625 488.41708,488.41708 0 0 0 1.01172,1.55859 488.41708,488.41708 0 0 0 1.01757,1.55469 488.41708,488.41708 0 0 0 1.02344,1.55078 488.41708,488.41708 0 0 0 1.0293,1.54883 488.41708,488.41708 0 0 0 1.03515,1.54297 488.41708,488.41708 0 0 0 1.04297,1.53906 488.41708,488.41708 0 0 0 1.04688,1.53516 488.41708,488.41708 0 0 0 1.05273,1.53125 488.41708,488.41708 0 0 0 1.0586,1.52734 488.41708,488.41708 0 0 0 1.06445,1.52344 488.41708,488.41708 0 0 0 1.07031,1.51758 488.41708,488.41708 0 0 0 1.07617,1.51562 488.41708,488.41708 0 0 0 1.08204,1.51172 488.41708,488.41708 0 0 0 1.08789,1.50586 488.41708,488.41708 0 0 0 1.09375,1.50191 488.41708,488.41708 0 0 0 1.09961,1.5 488.41708,488.41708 0 0 0 1.10546,1.4942 488.41708,488.41708 0 0 0 1.10938,1.4902 488.41708,488.41708 0 0 0 1.11719,1.4844 488.41708,488.41708 0 0 0 1.12109,1.4824 488.41708,488.41708 0 0 0 1.12695,1.4766 488.41708,488.41708 0 0 0 1.13477,1.4726 488.41708,488.41708 0 0 0 1.13867,1.4688 488.41708,488.41708 0 0 0 1.14258,1.4648 488.41708,488.41708 0 0 0 1.15039,1.4609 488.41708,488.41708 0 0 0 1.15625,1.4551 488.41708,488.41708 0 0 0 1.16016,1.4512 488.41708,488.41708 0 0 0 1.16601,1.4473 488.41708,488.41708 0 0 0 1.17188,1.4414 488.41708,488.41708 0 0 0 1.17773,1.4375 488.41708,488.41708 0 0 0 1.18359,1.4336 488.41708,488.41708 0 0 0 1.1875,1.4296 488.41708,488.41708 0 0 0 1.19336,1.4239 488.41708,488.41708 0 0 0 1.19922,1.4199 488.41708,488.41708 0 0 0 1.20508,1.4141 488.41708,488.41708 0 0 0 1.21094,1.4121 488.41708,488.41708 0 0 0 1.21484,1.4043 488.41708,488.41708 0 0 0 1.22071,1.4023 488.41708,488.41708 0 0 0 1.22656,1.3965 488.41708,488.41708 0 0 0 1.23047,1.3926 488.41708,488.41708 0 0 0 1.23632,1.3867 488.41708,488.41708 0 0 0 1.24219,1.3828 488.41708,488.41708 0 0 0 1.2461,1.377 488.41708,488.41708 0 0 0 1.25195,1.373 488.41708,488.41708 0 0 0 1.25781,1.3691 488.41708,488.41708 0 0 0 1.26367,1.3633 488.41708,488.41708 0 0 0 1.26758,1.3594 488.41708,488.41708 0 0 0 1.27344,1.3535 488.41708,488.41708 0 0 0 1.27734,1.3496 488.41708,488.41708 0 0 0 1.28321,1.3438 488.41708,488.41708 0 0 0 1.28906,1.3398 488.41708,488.41708 0 0 0 1.29297,1.334 488.41708,488.41708 0 0 0 1.29883,1.3281 488.41708,488.41708 0 0 0 1.30468,1.3262 488.41708,488.41708 0 0 0 1.3086,1.3184 488.41708,488.41708 0 0 0 1.3125,1.3144 488.41708,488.41708 0 0 0 1.31836,1.3106 488.41708,488.41708 0 0 0 1.32421,1.3027 488.41708,488.41708 0 0 0 1.32813,1.3008 488.41708,488.41708 0 0 0 1.33398,1.2949 488.41708,488.41708 0 0 0 1.33789,1.2891 488.41708,488.41708 0 0 0 1.34376,1.2832 488.41708,488.41708 0 0 0 1.34765,1.2793 488.41708,488.41708 0 0 0 1.35352,1.2734 488.41708,488.41708 0 0 0 1.35742,1.2695 488.41708,488.41708 0 0 0 1.36328,1.2637 488.41708,488.41708 0 0 0 1.36719,1.2578 488.41708,488.41708 0 0 0 1.37304,1.2539 488.41708,488.41708 0 0 0 1.37696,1.2481 488.41708,488.41708 0 0 0 1.38086,1.2422 488.41708,488.41708 0 0 0 1.38672,1.2363 488.41708,488.41708 0 0 0 1.39257,1.2324 488.41708,488.41708 0 0 0 1.39453,1.2266 488.41708,488.41708 0 0 0 1.4004,1.2226 488.41708,488.41708 0 0 0 1.40625,1.2168 488.41708,488.41708 0 0 0 1.41015,1.211 488.41708,488.41708 0 0 0 1.41406,1.205 488.41708,488.41708 0 0 0 1.41797,1.1993 488.41708,488.41708 0 0 0 1.42383,1.1953 488.41708,488.41708 0 0 0 1.42774,1.1894 488.41708,488.41708 0 0 0 1.43359,1.1836 488.41708,488.41708 0 0 0 1.4375,1.1777 488.41708,488.41708 0 0 0 1.44141,1.1739 488.41708,488.41708 0 0 0 1.44531,1.166 488.41708,488.41708 0 0 0 1.45117,1.1621 488.41708,488.41708 0 0 0 1.45312,1.1563 488.41708,488.41708 0 0 0 1.46094,1.1503 488.41708,488.41708 0 0 0 1.46289,1.1465 488.41708,488.41708 0 0 0 1.46875,1.1387 488.41708,488.41708 0 0 0 1.47071,1.1348 488.41708,488.41708 0 0 0 1.47656,1.1289 488.41708,488.41708 0 0 0 1.48242,1.123 488.41708,488.41708 0 0 0 1.48438,1.1172 488.41708,488.41708 0 0 0 1.48828,1.1113 488.41708,488.41708 0 0 0 1.49414,1.1055 488.41708,488.41708 0 0 0 1.49804,1.0996 488.41708,488.41708 0 0 0 1.50196,1.0938 488.41708,488.41708 0 0 0 1.50586,1.0898 488.41708,488.41708 0 0 0 1.50976,1.082 488.41708,488.41708 0 0 0 1.51563,1.0782 488.41708,488.41708 0 0 0 1.51758,1.0703 488.41708,488.41708 0 0 0 1.52343,1.0664 488.41708,488.41708 0 0 0 1.52539,1.0605 488.41708,488.41708 0 0 0 1.53125,1.0528 488.41708,488.41708 0 0 0 1.53516,1.0488 488.41708,488.41708 0 0 0 1.53711,1.043 488.41708,488.41708 0 0 0 1.54297,1.0351 488.41708,488.41708 0 0 0 1.54687,1.0313 488.41708,488.41708 0 0 0 1.55078,1.0254 488.41708,488.41708 0 0 0 1.55274,1.0175 488.41708,488.41708 0 0 0 1.55859,1.0137 488.41708,488.41708 0 0 0 1.5625,1.0078 488.41708,488.41708 0 0 0 1.56446,1 488.41708,488.41708 0 0 0 1.57031,0.9961 488.41708,488.41708 0 0 0 1.57422,0.9883 488.41708,488.41708 0 0 0 1.57617,0.9824 488.41708,488.41708 0 0 0 1.58008,0.9785 488.41708,488.41708 0 0 0 1.58593,0.9707 488.41708,488.41708 0 0 0 1.5879,0.9649 488.41708,488.41708 0 0 0 1.59179,0.959 488.41708,488.41708 0 0 0 1.59571,0.9531 488.41708,488.41708 0 0 0 1.5996,0.9472 488.41708,488.41708 0 0 0 1.60157,0.9395 488.41708,488.41708 0 0 0 1.60742,0.9355 488.41708,488.41708 0 0 0 1.60937,0.9278 488.41708,488.41708 0 0 0 1.61328,0.9219 488.41708,488.41708 0 0 0 1.61719,0.9179 488.41708,488.41708 0 0 0 1.61914,0.9102 488.41708,488.41708 0 0 0 1.625,0.9023 488.41708,488.41708 0 0 0 1.62696,0.8985 488.41708,488.41708 0 0 0 1.63086,0.8906 488.41708,488.41708 0 0 0 1.63281,0.8867 488.41708,488.41708 0 0 0 1.63672,0.8789 488.41708,488.41708 0 0 0 1.64062,0.8731 488.41708,488.41708 0 0 0 1.64453,0.8652 488.41708,488.41708 0 0 0 1.64844,0.8613 488.41708,488.41708 0 0 0 1.65039,0.8535 488.41708,488.41708 0 0 0 1.65234,0.8477 488.41708,488.41708 0 0 0 1.65821,0.8418 488.41708,488.41708 0 0 0 1.66015,0.8359 488.41708,488.41708 0 0 0 1.66211,0.8282 488.41708,488.41708 0 0 0 1.66797,0.8222 488.41708,488.41708 0 0 0 1.66797,0.8164 488.41708,488.41708 0 0 0 1.67383,0.8106 488.41708,488.41708 0 0 0 1.67578,0.8027 488.41708,488.41708 0 0 0 1.67774,0.7969 488.41708,488.41708 0 0 0 1.68164,0.791 488.41708,488.41708 0 0 0 1.68554,0.7852 488.41708,488.41708 0 0 0 1.6875,0.7773 488.41708,488.41708 0 0 0 1.69141,0.7715 488.41708,488.41708 0 0 0 1.69336,0.7656 488.41708,488.41708 0 0 0 1.69726,0.7578 488.41708,488.41708 0 0 0 1.69922,0.752 488.41708,488.41708 0 0 0 1.70117,0.7461 488.41708,488.41708 0 0 0 1.70508,0.7382 488.41708,488.41708 0 0 0 1.70899,0.7325 488.41708,488.41708 0 0 0 1.70898,0.7265 488.41708,488.41708 0 0 0 1.71485,0.7188 488.41708,488.41708 0 0 0 1.71484,0.7148 488.41708,488.41708 0 0 0 1.71875,0.7051 488.41708,488.41708 0 0 0 1.72265,0.7012 488.41708,488.41708 0 0 0 1.72461,0.6933 488.41708,488.41708 0 0 0 1.72657,0.6856 488.41708,488.41708 0 0 0 1.72851,0.6816 488.41708,488.41708 0 0 0 1.73242,0.6739 488.41708,488.41708 0 0 0 1.73438,0.666 488.41708,488.41708 0 0 0 1.73633,0.6601 488.41708,488.41708 0 0 0 1.74023,0.6543 488.41708,488.41708 0 0 0 1.74219,0.6485 488.41708,488.41708 0 0 0 1.74414,0.6406 488.41708,488.41708 0 0 0 1.74805,0.6328 488.41708,488.41708 0 0 0 1.74804,0.627 488.41708,488.41708 0 0 0 1.75196,0.621 488.41708,488.41708 0 0 0 1.7539,0.6153 488.41708,488.41708 0 0 0 1.75586,0.6074 488.41708,488.41708 0 0 0 1.75977,0.5996 488.41708,488.41708 0 0 0 1.75976,0.5938 488.41708,488.41708 0 0 0 1.76368,0.5879 488.41708,488.41708 0 0 0 1.76562,0.58 488.41708,488.41708 0 0 0 1.76758,0.5742 488.41708,488.41708 0 0 0 1.76953,0.5665 488.41708,488.41708 0 0 0 1.77148,0.5605 488.41708,488.41708 0 0 0 1.77539,0.5547 488.41708,488.41708 0 0 0 1.7754,0.5469 488.41708,488.41708 0 0 0 1.77734,0.539 488.41708,488.41708 0 0 0 1.78125,0.5332 488.41708,488.41708 0 0 0 1.78125,0.5274 488.41708,488.41708 0 0 0 1.78516,0.5195 488.41708,488.41708 0 0 0 1.78515,0.5137 488.41708,488.41708 0 0 0 1.78906,0.5058 488.41708,488.41708 0 0 0 1.78907,0.5 488.41708,488.41708 0 0 0 1.79297,0.4922 488.41708,488.41708 0 0 0 1.79296,0.4844 488.41708,488.41708 0 0 0 1.79688,0.4805 488.41708,488.41708 0 0 0 1.79687,0.4707 488.41708,488.41708 0 0 0 1.79883,0.4648 488.41708,488.41708 0 0 0 1.80078,0.459 488.41708,488.41708 0 0 0 1.80274,0.4512 488.41708,488.41708 0 0 0 1.80469,0.4453 488.41708,488.41708 0 0 0 1.80664,0.4375 488.41708,488.41708 0 0 0 1.80664,0.4316 488.41708,488.41708 0 0 0 1.81054,0.4238 488.41708,488.41708 0 0 0 1.81055,0.4161 488.41708,488.41708 0 0 0 1.8125,0.4121 488.41708,488.41708 0 0 0 1.81445,0.4023 488.41708,488.41708 0 0 0 1.81641,0.3965 488.41708,488.41708 0 0 0 1.81641,0.3887 488.41708,488.41708 0 0 0 1.81836,0.3828 488.41708,488.41708 0 0 0 1.82031,0.3769 488.41708,488.41708 0 0 0 1.82031,0.3692 488.41708,488.41708 0 0 0 1.82422,0.3613 488.41708,488.41708 0 0 0 1.82422,0.3535 488.41708,488.41708 0 0 0 1.82422,0.3496 488.41708,488.41708 0 0 0 1.82812,0.3399 488.41708,488.41708 0 0 0 1.82813,0.334 488.41708,488.41708 0 0 0 1.82812,0.3281 488.41708,488.41708 0 0 0 1.83203,0.3203 488.41708,488.41708 0 0 0 1.83203,0.3125 488.41708,488.41708 0 0 0 1.83204,0.3066 488.41708,488.41708 0 0 0 1.83398,0.2989 488.41708,488.41708 0 0 0 1.83594,0.2929 488.41708,488.41708 0 0 0 1.83593,0.2852 488.41708,488.41708 0 0 0 1.8379,0.2773 488.41708,488.41708 0 0 0 1.83789,0.2715 488.41708,488.41708 0 0 0 1.83984,0.2637 488.41708,488.41708 0 0 0 1.83984,0.2578 488.41708,488.41708 0 0 0 1.8418,0.25 488.41708,488.41708 0 0 0 1.8418,0.2441 488.41708,488.41708 0 0 0 1.84375,0.2364 488.41708,488.41708 0 0 0 1.84375,0.2285 488.41708,488.41708 0 0 0 1.8457,0.2226 488.41708,488.41708 0 0 0 1.8457,0.2149 488.41708,488.41708 0 0 0 1.84766,0.207 488.41708,488.41708 0 0 0 1.84766,0.2012 488.41708,488.41708 0 0 0 1.84765,0.1953 488.41708,488.41708 0 0 0 1.84961,0.1875 488.41708,488.41708 0 0 0 1.84961,0.1797 488.41708,488.41708 0 0 0 1.84961,0.1719 488.41708,488.41708 0 0 0 1.85156,0.166 488.41708,488.41708 0 0 0 1.85157,0.1601 488.41708,488.41708 0 0 0 1.85156,0.1504 488.41708,488.41708 0 0 0 1.85351,0.1465 488.41708,488.41708 0 0 0 1.85157,0.1367 488.41708,488.41708 0 0 0 1.85546,0.1309 488.41708,488.41708 0 0 0 1.85352,0.123 488.41708,488.41708 0 0 0 1.85547,0.1172 488.41708,488.41708 0 0 0 1.85351,0.1094 488.41708,488.41708 0 0 0 1.85547,0.1035 488.41708,488.41708 0 0 0 1.85743,0.094 488.41708,488.41708 0 0 0 1.85546,0.09 488.41708,488.41708 0 0 0 1.85743,0.08 488.41708,488.41708 0 0 0 1.85547,0.074 488.41708,488.41708 0 0 0 1.85742,0.068 488.41708,488.41708 0 0 0 1.85742,0.059 488.41708,488.41708 0 0 0 1.85742,0.055 488.41708,488.41708 0 0 0 1.85938,0.045 488.41708,488.41708 0 0 0 1.85742,0.039 488.41708,488.41708 0 0 0 1.85742,0.031 488.41708,488.41708 0 0 0 1.85937,0.025 488.41708,488.41708 0 0 0 1.85743,0.018 488.41708,488.41708 0 0 0 1.85937,0.012 488.41708,488.41708 0 0 0 1.85742,0 488.41708,488.41708 0 0 0 1.54493,0 488.41708,488.41708 0 0 0 1.85937,-0.01 488.41708,488.41708 0 0 0 1.85742,-0.016 488.41708,488.41708 0 0 0 1.85938,-0.024 488.41708,488.41708 0 0 0 1.85742,-0.031 488.41708,488.41708 0 0 0 1.85742,-0.037 488.41708,488.41708 0 0 0 1.85938,-0.045 488.41708,488.41708 0 0 0 1.85742,-0.053 488.41708,488.41708 0 0 0 1.85742,-0.059 488.41708,488.41708 0 0 0 1.85742,-0.066 488.41708,488.41708 0 0 0 1.85547,-0.072 488.41708,488.41708 0 0 0 1.85742,-0.08 488.41708,488.41708 0 0 0 1.85547,-0.088 488.41708,488.41708 0 0 0 1.85742,-0.094 488.41708,488.41708 0 0 0 1.85547,-0.1015 488.41708,488.41708 0 0 0 1.85547,-0.1074 488.41708,488.41708 0 0 0 1.85352,-0.1153 488.41708,488.41708 0 0 0 1.85546,-0.123 488.41708,488.41708 0 0 0 1.85352,-0.1289 488.41708,488.41708 0 0 0 1.85352,-0.1367 488.41708,488.41708 0 0 0 1.85156,-0.1446 488.41708,488.41708 0 0 0 1.85351,-0.1504 488.41708,488.41708 0 0 0 1.85157,-0.1582 488.41708,488.41708 0 0 0 1.85156,-0.164 488.41708,488.41708 0 0 0 1.84961,-0.1719 488.41708,488.41708 0 0 0 1.84961,-0.1797 488.41708,488.41708 0 0 0 1.84961,-0.1855 488.41708,488.41708 0 0 0 1.84765,-0.1934 488.41708,488.41708 0 0 0 1.84766,-0.1992 488.41708,488.41708 0 0 0 1.84766,-0.2071 488.41708,488.41708 0 0 0 1.8457,-0.2128 488.41708,488.41708 0 0 0 1.8457,-0.2227 488.41708,488.41708 0 0 0 1.84375,-0.2266 488.41708,488.41708 0 0 0 1.84375,-0.2363 488.41708,488.41708 0 0 0 1.8418,-0.2422 488.41708,488.41708 0 0 0 1.8418,-0.248 488.41708,488.41708 0 0 0 1.84179,-0.2559 488.41708,488.41708 0 0 0 1.83985,-0.2637 488.41708,488.41708 0 0 0 1.83789,-0.2695 488.41708,488.41708 0 0 0 1.83789,-0.2773 488.41708,488.41708 0 0 0 1.83593,-0.2852 488.41708,488.41708 0 0 0 1.83594,-0.291 488.41708,488.41708 0 0 0 1.83399,-0.2969 488.41708,488.41708 0 0 0 1.83398,-0.3047 488.41708,488.41708 0 0 0 1.83203,-0.3125 488.41708,488.41708 0 0 0 1.83008,-0.3183 488.41708,488.41708 0 0 0 1.83008,-0.3262 488.41708,488.41708 0 0 0 1.82812,-0.334 488.41708,488.41708 0 0 0 1.82618,-0.3398 488.41708,488.41708 0 0 0 1.82617,-0.3457 488.41708,488.41708 0 0 0 1.82422,-0.3535 488.41708,488.41708 0 0 0 1.82421,-0.3614 488.41708,488.41708 0 0 0 1.82032,-0.3672 488.41708,488.41708 0 0 0 1.82031,-0.375 488.41708,488.41708 0 0 0 1.81836,-0.3808 488.41708,488.41708 0 0 0 1.81836,-0.3887 488.41708,488.41708 0 0 0 1.81641,-0.3965 488.41708,488.41708 0 0 0 1.81445,-0.4004 488.41708,488.41708 0 0 0 1.8125,-0.4101 488.41708,488.41708 0 0 0 1.81055,-0.416 488.41708,488.41708 0 0 0 1.81054,-0.4219 488.41708,488.41708 0 0 0 1.80664,-0.4297 488.41708,488.41708 0 0 0 1.80664,-0.4375 488.41708,488.41708 0 0 0 1.80469,-0.4434 488.41708,488.41708 0 0 0 1.80273,-0.4511 488.41708,488.41708 0 0 0 1.80274,-0.4571 488.41708,488.41708 0 0 0 1.79883,-0.4629 488.41708,488.41708 0 0 0 1.79687,-0.4707 488.41708,488.41708 0 0 0 1.79688,-0.4785 488.41708,488.41708 0 0 0 1.79492,-0.4843 488.41708,488.41708 0 0 0 1.79102,-0.4922 488.41708,488.41708 0 0 0 1.79101,-0.4981 488.41708,488.41708 0 0 0 1.78906,-0.5039 488.41708,488.41708 0 0 0 1.78516,-0.5117 488.41708,488.41708 0 0 0 1.78516,-0.5195 488.41708,488.41708 0 0 0 1.7832,-0.5254 488.41708,488.41708 0 0 0 1.7793,-0.5313 488.41708,488.41708 0 0 0 1.77929,-0.539 488.41708,488.41708 0 0 0 1.77539,-0.5469 488.41708,488.41708 0 0 0 1.77539,-0.5527 488.41708,488.41708 0 0 0 1.77149,-0.5586 488.41708,488.41708 0 0 0 1.77148,-0.5664 488.41708,488.41708 0 0 0 1.76758,-0.5723 488.41708,488.41708 0 0 0 1.76563,-0.5801 488.41708,488.41708 0 0 0 1.76367,-0.5859 488.41708,488.41708 0 0 0 1.76172,-0.5918 488.41708,488.41708 0 0 0 1.75781,-0.5996 488.41708,488.41708 0 0 0 1.75781,-0.6075 488.41708,488.41708 0 0 0 1.75391,-0.6113 488.41708,488.41708 0 0 0 1.75195,-0.6211 488.41708,488.41708 0 0 0 1.75,-0.625 488.41708,488.41708 0 0 0 1.74609,-0.6328 488.41708,488.41708 0 0 0 1.7461,-0.6406 488.41708,488.41708 0 0 0 1.74219,-0.6465 488.41708,488.41708 0 0 0 1.74023,-0.6523 488.41708,488.41708 0 0 0 1.73633,-0.6602 488.41708,488.41708 0 0 0 1.73633,-0.666 488.41708,488.41708 0 0 0 1.73242,-0.6719 488.41708,488.41708 0 0 0 1.72851,-0.6797 488.41708,488.41708 0 0 0 1.72852,-0.6855 488.41708,488.41708 0 0 0 1.72461,-0.6914 488.41708,488.41708 0 0 0 1.7207,-0.6993 488.41708,488.41708 0 0 0 1.7207,-0.705 488.41708,488.41708 0 0 0 1.7168,-0.7129 488.41708,488.41708 0 0 0 1.71289,-0.7188 488.41708,488.41708 0 0 0 1.71094,-0.7246 488.41708,488.41708 0 0 0 1.70898,-0.7305 488.41708,488.41708 0 0 0 1.70508,-0.7382 488.41708,488.41708 0 0 0 1.70313,-0.7442 488.41708,488.41708 0 0 0 1.69922,-0.7519 488.41708,488.41708 0 0 0 1.69726,-0.7578 488.41708,488.41708 0 0 0 1.69336,-0.7637 488.41708,488.41708 0 0 0 1.69141,-0.7695 488.41708,488.41708 0 0 0 1.68945,-0.7774 488.41708,488.41708 0 0 0 1.68555,-0.7832 488.41708,488.41708 0 0 0 1.68164,-0.7891 488.41708,488.41708 0 0 0 1.67969,-0.7968 488.41708,488.41708 0 0 0 1.67578,-0.8028 488.41708,488.41708 0 0 0 1.67382,-0.8086 488.41708,488.41708 0 0 0 1.66993,-0.8144 488.41708,488.41708 0 0 0 1.66601,-0.8223 488.41708,488.41708 0 0 0 1.66406,-0.8261 488.41708,488.41708 0 0 0 1.66016,-0.836 488.41708,488.41708 0 0 0 1.6582,-0.8398 488.41708,488.41708 0 0 0 1.6543,-0.8457 488.41708,488.41708 0 0 0 1.65039,-0.8535 488.41708,488.41708 0 0 0 1.64844,-0.8594 488.41708,488.41708 0 0 0 1.64453,-0.8653 488.41708,488.41708 0 0 0 1.64063,-0.873 488.41708,488.41708 0 0 0 1.63867,-0.877 488.41708,488.41708 0 0 0 1.63476,-0.8847 488.41708,488.41708 0 0 0 1.63086,-0.8906 488.41708,488.41708 0 0 0 1.62696,-0.8965 488.41708,488.41708 0 0 0 1.625,-0.9024 488.41708,488.41708 0 0 0 1.62109,-0.9101 488.41708,488.41708 0 0 0 1.61719,-0.9141 488.41708,488.41708 0 0 0 1.61328,-0.9219 488.41708,488.41708 0 0 0 1.61133,-0.9277 488.41708,488.41708 0 0 0 1.60742,-0.9336 488.41708,488.41708 0 0 0 1.60351,-0.9394 488.41708,488.41708 0 0 0 1.59961,-0.9454 488.41708,488.41708 0 0 0 1.59571,-0.9531 488.41708,488.41708 0 0 0 1.59179,-0.957 488.41708,488.41708 0 0 0 1.58985,-0.9649 488.41708,488.41708 0 0 0 1.58398,-0.9687 488.41708,488.41708 0 0 0 1.58203,-0.9766 488.41708,488.41708 0 0 0 1.57813,-0.9824 488.41708,488.41708 0 0 0 1.57422,-0.9883 488.41708,488.41708 0 0 0 1.56836,-0.9941 488.41708,488.41708 0 0 0 1.5664,-1 488.41708,488.41708 0 0 0 1.5625,-1.0059 488.41708,488.41708 0 0 0 1.56055,-1.0117 488.41708,488.41708 0 0 0 1.55469,-1.0176 488.41708,488.41708 0 0 0 1.55078,-1.0234 488.41708,488.41708 0 0 0 1.54687,-1.0293 488.41708,488.41708 0 0 0 1.54297,-1.0371 488.41708,488.41708 0 0 0 1.53906,-1.041 488.41708,488.41708 0 0 0 1.53516,-1.0469 488.41708,488.41708 0 0 0 1.53125,-1.0527 488.41708,488.41708 0 0 0 1.52734,-1.0586 488.41708,488.41708 0 0 0 1.52344,-1.0645 488.41708,488.41708 0 0 0 1.51953,-1.0703 488.41708,488.41708 0 0 0 1.51367,-1.0781 488.41708,488.41708 0 0 0 1.51172,-1.0821 488.41708,488.41708 0 0 0 1.50586,-1.0859 488.41708,488.41708 0 0 0 1.50391,-1.0937 488.41708,488.41708 0 0 0 1.49805,-1.0997 488.41708,488.41708 0 0 0 1.49414,-1.1054 488.41708,488.41708 0 0 0 1.49023,-1.1094 488.41708,488.41708 0 0 0 1.48633,-1.1172 488.41708,488.41708 0 0 0 1.48047,-1.1211 488.41708,488.41708 0 0 0 1.47851,-1.1289 488.41708,488.41708 0 0 0 1.47266,-1.1328 488.41708,488.41708 0 0 0 1.46875,-1.1387 488.41708,488.41708 0 0 0 1.46484,-1.1445 488.41708,488.41708 0 0 0 1.45899,-1.1484 488.41708,488.41708 0 0 0 1.45508,-1.1563 488.41708,488.41708 0 0 0 1.45117,-1.1601 488.41708,488.41708 0 0 0 1.44726,-1.1661 488.41708,488.41708 0 0 0 1.44141,-1.1718 488.41708,488.41708 0 0 0 1.43945,-1.1778 488.41708,488.41708 0 0 0 1.43164,-1.1836 488.41708,488.41708 0 0 0 1.42969,-1.1875 488.41708,488.41708 0 0 0 1.42383,-1.1953 488.41708,488.41708 0 0 0 1.41992,-1.1992 488.41708,488.41708 0 0 0 1.41602,-1.2031 488.41708,488.41708 0 0 0 1.41015,-1.211 488.41708,488.41708 0 0 0 1.40625,-1.2148 488.41708,488.41708 0 0 0 1.40039,-1.2207 488.41708,488.41708 0 0 0 1.39649,-1.2266 488.41708,488.41708 0 0 0 1.39258,-1.2304 488.41708,488.41708 0 0 0 1.38671,-1.2364 488.41708,488.41708 0 0 0 1.38282,-1.2422 488.41708,488.41708 0 0 0 1.3789,-1.246 488.41708,488.41708 0 0 0 1.37305,-1.254 488.41708,488.41708 0 0 0 1.36719,-1.2558 488.41708,488.41708 0 0 0 1.36328,-1.2637 488.41708,488.41708 0 0 0 1.35937,-1.2676 488.41708,488.41708 0 0 0 1.35354,-1.2734 488.41708,488.41708 0 0 0 1.3496,-1.2773 488.41708,488.41708 0 0 0 1.3437,-1.2832 488.41708,488.41708 0 0 0 1.3399,-1.2891 488.41708,488.41708 0 0 0 1.3339,-1.293 488.41708,488.41708 0 0 0 1.3301,-1.2988 488.41708,488.41708 0 0 0 1.3242,-1.3047 488.41708,488.41708 0 0 0 1.3184,-1.3086 488.41708,488.41708 0 0 0 1.3145,-1.3125 488.41708,488.41708 0 0 0 1.3105,-1.3183 488.41708,488.41708 0 0 0 1.3047,-1.3243 488.41708,488.41708 0 0 0 1.2988,-1.3281 488.41708,488.41708 0 0 0 1.2949,-1.334 488.41708,488.41708 0 0 0 1.2891,-1.3379 488.41708,488.41708 0 0 0 1.2832,-1.3437 488.41708,488.41708 0 0 0 1.2793,-1.3477 488.41708,488.41708 0 0 0 1.2754,-1.3535 488.41708,488.41708 0 0 0 1.2676,-1.3574 488.41708,488.41708 0 0 0 1.2636,-1.3633 488.41708,488.41708 0 0 0 1.2579,-1.3672 488.41708,488.41708 0 0 0 1.2539,-1.373 488.41708,488.41708 0 0 0 1.248,-1.377 488.41708,488.41708 0 0 0 1.2422,-1.3808 488.41708,488.41708 0 0 0 1.2383,-1.3868 488.41708,488.41708 0 0 0 1.2324,-1.3925 488.41708,488.41708 0 0 0 1.2266,-1.3946 488.41708,488.41708 0 0 0 1.2207,-1.4004 488.41708,488.41708 0 0 0 1.2168,-1.4062 488.41708,488.41708 0 0 0 1.2109,-1.4102 488.41708,488.41708 0 0 0 1.2051,-1.414 488.41708,488.41708 0 0 0 1.1992,-1.418 488.41708,488.41708 0 0 0 1.1953,-1.4238 488.41708,488.41708 0 0 0 1.1895,-1.4278 488.41708,488.41708 0 0 0 1.1836,-1.4335 488.41708,488.41708 0 0 0 1.1777,-1.4375 488.41708,488.41708 0 0 0 1.1738,-1.4415 488.41708,488.41708 0 0 0 1.168,-1.4453 488.41708,488.41708 0 0 0 1.1621,-1.4511 488.41708,488.41708 0 0 0 1.1562,-1.4551 488.41708,488.41708 0 0 0 1.1504,-1.459 488.41708,488.41708 0 0 0 1.1446,-1.4629 488.41708,488.41708 0 0 0 1.1406,-1.4687 488.41708,488.41708 0 0 0 1.1328,-1.4707 488.41708,488.41708 0 0 0 1.1289,-1.4766 488.41708,488.41708 0 0 0 1.1231,-1.4824 488.41708,488.41708 0 0 0 1.1171,-1.4844 488.41708,488.41708 0 0 0 1.1114,-1.4902 488.41708,488.41708 0 0 0 1.1054,-1.4922 488.41708,488.41708 0 0 0 1.0997,-1.4981 488.41708,488.41708 0 0 0 1.0957,-1.5019 488.41708,488.41708 0 0 0 1.0878,-1.50586 488.41708,488.41708 0 0 0 1.084,-1.50977 488.41708,488.41708 0 0 0 1.0762,-1.51563 488.41708,488.41708 0 0 0 1.0723,-1.51757 488.41708,488.41708 0 0 0 1.0644,-1.52344 488.41708,488.41708 0 0 0 1.0606,-1.52539 488.41708,488.41708 0 0 0 1.0547,-1.53125 488.41708,488.41708 0 0 0 1.0468,-1.53516 488.41708,488.41708 0 0 0 1.043,-1.53711 488.41708,488.41708 0 0 0 1.0371,-1.54297 488.41708,488.41708 0 0 0 1.0293,-1.54687 488.41708,488.41708 0 0 0 1.0254,-1.55078 488.41708,488.41708 0 0 0 1.0195,-1.55274 488.41708,488.41708 0 0 0 1.0117,-1.55859 488.41708,488.41708 0 0 0 1.0079,-1.5625 488.41708,488.41708 0 0 0 1.0019,-1.56641 488.41708,488.41708 0 0 0 0.9942,-1.56836 488.41708,488.41708 0 0 0 0.9882,-1.57421 488.41708,488.41708 0 0 0 0.9844,-1.57618 488.41708,488.41708 0 0 0 0.9766,-1.58203 488.41708,488.41708 0 0 0 0.9707,-1.58398 488.41708,488.41708 0 0 0 0.9648,-1.58789 488.41708,488.41708 0 0 0 0.959,-1.5918 488.41708,488.41708 0 0 0 0.9531,-1.5957 488.41708,488.41708 0 0 0 0.9473,-1.59961 488.41708,488.41708 0 0 0 0.9414,-1.60156 488.41708,488.41708 0 0 0 0.9336,-1.60743 488.41708,488.41708 0 0 0 0.9297,-1.60937 488.41708,488.41708 0 0 0 0.9219,-1.61328 488.41708,488.41708 0 0 0 0.916,-1.61719 488.41708,488.41708 0 0 0 0.9101,-1.61914 488.41708,488.41708 0 0 0 0.9043,-1.625 488.41708,488.41708 0 0 0 0.8965,-1.62695 488.41708,488.41708 0 0 0 0.8926,-1.63086 488.41708,488.41708 0 0 0 0.8848,-1.63282 488.41708,488.41708 0 0 0 0.8789,-1.63867 488.41708,488.41708 0 0 0 0.873,-1.64062 488.41708,488.41708 0 0 0 0.8672,-1.64258 488.41708,488.41708 0 0 0 0.8594,-1.64844 488.41708,488.41708 0 0 0 0.8554,-1.65039 488.41708,488.41708 0 0 0 0.8477,-1.65234 488.41708,488.41708 0 0 0 0.8398,-1.65821 488.41708,488.41708 0 0 0 0.836,-1.66015 488.41708,488.41708 0 0 0 0.8281,-1.66211 488.41708,488.41708 0 0 0 0.8242,-1.66797 488.41708,488.41708 0 0 0 0.8145,-1.66797 488.41708,488.41708 0 0 0 0.8105,-1.67383 488.41708,488.41708 0 0 0 0.8028,-1.67578 488.41708,488.41708 0 0 0 0.7988,-1.67773 488.41708,488.41708 0 0 0 0.789,-1.68164 488.41708,488.41708 0 0 0 0.7852,-1.68555 488.41708,488.41708 0 0 0 0.7773,-1.6875 488.41708,488.41708 0 0 0 0.7715,-1.69141 488.41708,488.41708 0 0 0 0.7657,-1.69336 488.41708,488.41708 0 0 0 0.7578,-1.69726 488.41708,488.41708 0 0 0 0.7519,-1.69922 488.41708,488.41708 0 0 0 0.7461,-1.70117 488.41708,488.41708 0 0 0 0.7383,-1.70508 488.41708,488.41708 0 0 0 0.7344,-1.70898 488.41708,488.41708 0 0 0 0.7246,-1.71094 488.41708,488.41708 0 0 0 0.7207,-1.71289 488.41708,488.41708 0 0 0 0.7129,-1.7168 488.41708,488.41708 0 0 0 0.707,-1.71875 488.41708,488.41708 0 0 0 0.6992,-1.7207 488.41708,488.41708 0 0 0 0.6934,-1.72461 488.41708,488.41708 0 0 0 0.6875,-1.72656 488.41708,488.41708 0 0 0 0.6797,-1.72852 488.41708,488.41708 0 0 0 0.6738,-1.73242 488.41708,488.41708 0 0 0 0.668,-1.73438 488.41708,488.41708 0 0 0 0.6601,-1.73828 488.41708,488.41708 0 0 0 0.6543,-1.73828 488.41708,488.41708 0 0 0 0.6465,-1.74219 488.41708,488.41708 0 0 0 0.6406,-1.74414 488.41708,488.41708 0 0 0 0.6348,-1.74804 488.41708,488.41708 0 0 0 0.6269,-1.74805 488.41708,488.41708 0 0 0 0.6211,-1.75195 488.41708,488.41708 0 0 0 0.6133,-1.75391 488.41708,488.41708 0 0 0 0.6074,-1.75586 488.41708,488.41708 0 0 0 0.6016,-1.75977 488.41708,488.41708 0 0 0 0.5938,-1.75976 488.41708,488.41708 0 0 0 0.5859,-1.76367 488.41708,488.41708 0 0 0 0.582,-1.76563 488.41708,488.41708 0 0 0 0.5723,-1.76758 488.41708,488.41708 0 0 0 0.5684,-1.76953 488.41708,488.41708 0 0 0 0.5605,-1.77148 488.41708,488.41708 0 0 0 0.5527,-1.77539 488.41708,488.41708 0 0 0 0.5469,-1.77539 488.41708,488.41708 0 0 0 0.541,-1.7793 488.41708,488.41708 0 0 0 0.5332,-1.7793 488.41708,488.41708 0 0 0 0.5254,-1.7832 488.41708,488.41708 0 0 0 0.5195,-1.7832 488.41708,488.41708 0 0 0 0.5137,-1.78711 488.41708,488.41708 0 0 0 0.5059,-1.78711 488.41708,488.41708 0 0 0 0.5,-1.79102 488.41708,488.41708 0 0 0 0.4922,-1.79101 488.41708,488.41708 0 0 0 0.4863,-1.79297 488.41708,488.41708 0 0 0 0.4785,-1.79688 488.41708,488.41708 0 0 0 0.4727,-1.79687 488.41708,488.41708 0 0 0 0.4648,-1.79883 488.41708,488.41708 0 0 0 0.459,-1.80078 488.41708,488.41708 0 0 0 0.4512,-1.80274 488.41708,488.41708 0 0 0 0.4433,-1.80468 488.41708,488.41708 0 0 0 0.4375,-1.80664 488.41708,488.41708 0 0 0 0.4317,-1.8086 488.41708,488.41708 0 0 0 0.4238,-1.80859 488.41708,488.41708 0 0 0 0.418,-1.81055 488.41708,488.41708 0 0 0 0.4101,-1.8125 488.41708,488.41708 0 0 0 0.4024,-1.81445 488.41708,488.41708 0 0 0 0.3964,-1.81641 488.41708,488.41708 0 0 0 0.3907,-1.8164 488.41708,488.41708 0 0 0 0.3828,-1.81836 488.41708,488.41708 0 0 0 0.375,-1.82032 488.41708,488.41708 0 0 0 0.3691,-1.82226 488.41708,488.41708 0 0 0 0.3614,-1.82227 488.41708,488.41708 0 0 0 0.3554,-1.82422 488.41708,488.41708 0 0 0 0.3477,-1.82421 488.41708,488.41708 0 0 0 0.3418,-1.82813 488.41708,488.41708 0 0 0 0.334,-1.82812 488.41708,488.41708 0 0 0 0.3261,-1.82813 488.41708,488.41708 0 0 0 0.3203,-1.83203 488.41708,488.41708 0 0 0 0.3125,-1.83203 488.41708,488.41708 0 0 0 0.3067,-1.83203 488.41708,488.41708 0 0 0 0.2988,-1.83399 488.41708,488.41708 0 0 0 0.293,-1.83593 488.41708,488.41708 0 0 0 0.2851,-1.83594 488.41708,488.41708 0 0 0 0.2774,-1.83789 488.41708,488.41708 0 0 0 0.2715,-1.83789 488.41708,488.41708 0 0 0 0.2656,-1.83985 488.41708,488.41708 0 0 0 0.2558,-1.83984 488.41708,488.41708 0 0 0 0.25,-1.8418 488.41708,488.41708 0 0 0 0.2442,-1.84179 488.41708,488.41708 0 0 0 0.2363,-1.84376 488.41708,488.41708 0 0 0 0.2285,-1.84374 488.41708,488.41708 0 0 0 0.2227,-1.84571 488.41708,488.41708 0 0 0 0.2148,-1.8457 488.41708,488.41708 0 0 0 0.209,-1.84766 488.41708,488.41708 0 0 0 0.2012,-1.84765 488.41708,488.41708 0 0 0 0.1933,-1.84766 488.41708,488.41708 0 0 0 0.1876,-1.84961 488.41708,488.41708 0 0 0 0.1796,-1.84961 488.41708,488.41708 0 0 0 0.1739,-1.84961 488.41708,488.41708 0 0 0 0.166,-1.85156 488.41708,488.41708 0 0 0 0.1582,-1.85156 488.41708,488.41708 0 0 0 0.1523,-1.85157 488.41708,488.41708 0 0 0 0.1446,-1.85351 488.41708,488.41708 0 0 0 0.1367,-1.85352 488.41708,488.41708 0 0 0 0.1308,-1.85351 488.41708,488.41708 0 0 0 0.125,-1.85352 488.41708,488.41708 0 0 0 0.1153,-1.85547 488.41708,488.41708 0 0 0 0.1093,-1.85547 488.41708,488.41708 0 0 0 0.1036,-1.85546 488.41708,488.41708 0 0 0 0.096,-1.85547 488.41708,488.41708 0 0 0 0.088,-1.85547 488.41708,488.41708 0 0 0 0.082,-1.85742 488.41708,488.41708 0 0 0 0.074,-1.85743 488.41708,488.41708 0 0 0 0.066,-1.85546 488.41708,488.41708 0 0 0 0.061,-1.85743 488.41708,488.41708 0 0 0 0.053,-1.85937 488.41708,488.41708 0 0 0 0.045,-1.85742 488.41708,488.41708 0 0 0 0.039,-1.85743 488.41708,488.41708 0 0 0 0.033,-1.85742 488.41708,488.41708 0 0 0 0.023,-1.85937 488.41708,488.41708 0 0 0 0.018,-1.85742 488.41708,488.41708 0 0 0 0.012,-1.85938 488.41708,488.41708 0 0 0 0,-1.85742 488.41708,488.41708 0 0 0 0,-1.54492 488.41708,488.41708 0 0 0 -0.01,-1.85938 488.41708,488.41708 0 0 0 -0.018,-1.85742 488.41708,488.41708 0 0 0 -0.023,-1.85937 488.41708,488.41708 0 0 0 -0.031,-1.85743 488.41708,488.41708 0 0 0 -0.037,-1.85742 488.41708,488.41708 0 0 0 -0.045,-1.85937 488.41708,488.41708 0 0 0 -0.051,-1.85742 488.41708,488.41708 0 0 0 -0.061,-1.85743 488.41708,488.41708 0 0 0 -0.064,-1.85742 488.41708,488.41708 0 0 0 -0.074,-1.85547 488.41708,488.41708 0 0 0 -0.08,-1.85742 488.41708,488.41708 0 0 0 -0.086,-1.85547 488.41708,488.41708 0 0 0 -0.096,-1.85742 488.41708,488.41708 0 0 0 -0.1,-1.85547 488.41708,488.41708 0 0 0 -0.1094,-1.85547 488.41708,488.41708 0 0 0 -0.1152,-1.85351 488.41708,488.41708 0 0 0 -0.1231,-1.85547 488.41708,488.41708 0 0 0 -0.1289,-1.85352 488.41708,488.41708 0 0 0 -0.1367,-1.85351 488.41708,488.41708 0 0 0 -0.1426,-1.85352 488.41708,488.41708 0 0 0 -0.1523,-1.85156 488.41708,488.41708 0 0 0 -0.1563,-1.85156 488.41708,488.41708 0 0 0 -0.166,-1.85157 488.41708,488.41708 0 0 0 -0.1719,-1.84961 488.41708,488.41708 0 0 0 -0.1777,-1.8496 488.41708,488.41708 0 0 0 -0.1855,-1.84961 488.41708,488.41708 0 0 0 -0.1934,-1.84766 488.41708,488.41708 0 0 0 -0.2012,-1.84766 488.41708,488.41708 0 0 0 -0.207,-1.84765 488.41708,488.41708 0 0 0 -0.2129,-1.84571 488.41708,488.41708 0 0 0 -0.2207,-1.8457 488.41708,488.41708 0 0 0 -0.2285,-1.84375 488.41708,488.41708 0 0 0 -0.2344,-1.84375 488.41708,488.41708 0 0 0 -0.2422,-1.8418 488.41708,488.41708 0 0 0 -0.25,-1.84179 488.41708,488.41708 0 0 0 -0.2558,-1.8418 488.41708,488.41708 0 0 0 -0.2637,-1.83984 488.41708,488.41708 0 0 0 -0.2695,-1.83789 488.41708,488.41708 0 0 0 -0.2774,-1.83789 488.41708,488.41708 0 0 0 -0.2832,-1.83594 488.41708,488.41708 0 0 0 -0.291,-1.83594 488.41708,488.41708 0 0 0 -0.2988,-1.83398 488.41708,488.41708 0 0 0 -0.3047,-1.83399 488.41708,488.41708 0 0 0 -0.3125,-1.83203 488.41708,488.41708 0 0 0 -0.3184,-1.83008 488.41708,488.41708 0 0 0 -0.3262,-1.83008 488.41708,488.41708 0 0 0 -0.332,-1.82812 488.41708,488.41708 0 0 0 -0.3398,-1.82617 488.41708,488.41708 0 0 0 -0.3477,-1.82617 488.41708,488.41708 0 0 0 -0.3535,-1.82422 488.41708,488.41708 0 0 0 -0.3613,-1.82422 488.41708,488.41708 0 0 0 -0.3672,-1.82032 488.41708,488.41708 0 0 0 -0.375,-1.82031 488.41708,488.41708 0 0 0 -0.3809,-1.82031 488.41708,488.41708 0 0 0 -0.3886,-1.81641 488.41708,488.41708 0 0 0 -0.3946,-1.8164 488.41708,488.41708 0 0 0 -0.4023,-1.81446 488.41708,488.41708 0 0 0 -0.4102,-1.8125 488.41708,488.41708 0 0 0 -0.416,-1.81054 488.41708,488.41708 0 0 0 -0.4219,-1.81055 488.41708,488.41708 0 0 0 -0.4297,-1.80859 488.41708,488.41708 0 0 0 -0.4375,-1.80469 488.41708,488.41708 0 0 0 -0.4433,-1.80469 488.41708,488.41708 0 0 0 -0.4492,-1.80469 488.41708,488.41708 0 0 0 -0.4571,-1.80078 488.41708,488.41708 0 0 0 -0.4648,-1.79882 488.41708,488.41708 0 0 0 -0.4707,-1.79883 488.41708,488.41708 0 0 0 -0.4785,-1.79493 488.41708,488.41708 0 0 0 -0.4844,-1.79492 488.41708,488.41708 0 0 0 -0.4902,-1.79101 488.41708,488.41708 0 0 0 -0.5,-1.79102 488.41708,488.41708 0 0 0 -0.5039,-1.78906 488.41708,488.41708 0 0 0 -0.5118,-1.78516 488.41708,488.41708 0 0 0 -0.5195,-1.78515 488.41708,488.41708 0 0 0 -0.5254,-1.78321 488.41708,488.41708 0 0 0 -0.5312,-1.77929 488.41708,488.41708 0 0 0 -0.5391,-1.7793 488.41708,488.41708 0 0 0 -0.5469,-1.77734 488.41708,488.41708 0 0 0 -0.5508,-1.77344 488.41708,488.41708 0 0 0 -0.5605,-1.77149 488.41708,488.41708 0 0 0 -0.5645,-1.77148 488.41708,488.41708 0 0 0 -0.5742,-1.76758 488.41708,488.41708 0 0 0 -0.5781,-1.76562 488.41708,488.41708 0 0 0 -0.5859,-1.76367 488.41708,488.41708 0 0 0 -0.5938,-1.76172 488.41708,488.41708 0 0 0 -0.5996,-1.75782 488.41708,488.41708 0 0 0 -0.6055,-1.75781 488.41708,488.41708 0 0 0 -0.6132,-1.75391 488.41708,488.41708 0 0 0 -0.6192,-1.75195 488.41708,488.41708 0 0 0 -0.6269,-1.75 488.41708,488.41708 0 0 0 -0.6328,-1.74805 488.41708,488.41708 0 0 0 -0.6387,-1.74414 488.41708,488.41708 0 0 0 -0.6465,-1.74218 488.41708,488.41708 0 0 0 -0.6543,-1.74024 488.41708,488.41708 0 0 0 -0.6582,-1.73633 488.41708,488.41708 0 0 0 -0.666,-1.73632 488.41708,488.41708 0 0 0 -0.6739,-1.73243 488.41708,488.41708 0 0 0 -0.6777,-1.72851 488.41708,488.41708 0 0 0 -0.6855,-1.72852 488.41708,488.41708 0 0 0 -0.6934,-1.72461 488.41708,488.41708 0 0 0 -0.6992,-1.7207 488.41708,488.41708 0 0 0 -0.7051,-1.7207 488.41708,488.41708 0 0 0 -0.7109,-1.7168 488.41708,488.41708 0 0 0 -0.7188,-1.71289 488.41708,488.41708 0 0 0 -0.7265,-1.71094 488.41708,488.41708 0 0 0 -0.7305,-1.70898 488.41708,488.41708 0 0 0 -0.7383,-1.70508 488.41708,488.41708 0 0 0 -0.7441,-1.70313 488.41708,488.41708 0 0 0 -0.752,-1.69921 488.41708,488.41708 0 0 0 -0.7558,-1.69727 488.41708,488.41708 0 0 0 -0.7657,-1.69531 488.41708,488.41708 0 0 0 -0.7695,-1.68945 488.41708,488.41708 0 0 0 -0.7773,-1.68946 488.41708,488.41708 0 0 0 -0.7832,-1.68554 488.41708,488.41708 0 0 0 -0.7891,-1.68165 488.41708,488.41708 0 0 0 -0.7969,-1.67968 488.41708,488.41708 0 0 0 -0.8008,-1.67578 488.41708,488.41708 0 0 0 -0.8086,-1.67383 488.41708,488.41708 0 0 0 -0.8164,-1.66992 488.41708,488.41708 0 0 0 -0.8203,-1.66602 488.41708,488.41708 0 0 0 -0.8281,-1.66406 488.41708,488.41708 0 0 0 -0.834,-1.66211 488.41708,488.41708 0 0 0 -0.8418,-1.65625 488.41708,488.41708 0 0 0 -0.8457,-1.6543 488.41708,488.41708 0 0 0 -0.8535,-1.65234 488.41708,488.41708 0 0 0 -0.8594,-1.64649 488.41708,488.41708 0 0 0 -0.8652,-1.64453 488.41708,488.41708 0 0 0 -0.8711,-1.64062 488.41708,488.41708 0 0 0 -0.8789,-1.63868 488.41708,488.41708 0 0 0 -0.8848,-1.63476 488.41708,488.41708 0 0 0 -0.8906,-1.63086 488.41708,488.41708 0 0 0 -0.8965,-1.62891 488.41708,488.41708 0 0 0 -0.9023,-1.62304 488.41708,488.41708 0 0 0 -0.9082,-1.6211 488.41708,488.41708 0 0 0 -0.916,-1.61718 488.41708,488.41708 0 0 0 -0.9219,-1.61524 488.41708,488.41708 0 0 0 -0.9278,-1.60937 488.41708,488.41708 0 0 0 -0.9336,-1.60743 488.41708,488.41708 0 0 0 -0.9394,-1.60351 488.41708,488.41708 0 0 0 -0.9453,-1.59961 488.41708,488.41708 0 0 0 -0.9512,-1.5957 488.41708,488.41708 0 0 0 -0.959,-1.5918 488.41708,488.41708 0 0 0 -0.9629,-1.58984 488.41708,488.41708 0 0 0 -0.9707,-1.58399 488.41708,488.41708 0 0 0 -0.9765,-1.58203 488.41708,488.41708 0 0 0 -0.9824,-1.57813 488.41708,488.41708 0 0 0 -0.9864,-1.57421 488.41708,488.41708 0 0 0 -0.9941,-1.57032 488.41708,488.41708 0 0 0 -1,-1.5664 488.41708,488.41708 0 0 0 -1.0059,-1.5625 488.41708,488.41708 0 0 0 -1.0136,-1.5586 488.41708,488.41708 0 0 0 -1.0176,-1.55468 488.41708,488.41708 0 0 0 -1.0235,-1.55079 488.41708,488.41708 0 0 0 -1.0293,-1.54687 488.41708,488.41708 0 0 0 -1.0351,-1.54297 488.41708,488.41708 0 0 0 -1.041,-1.53906 488.41708,488.41708 0 0 0 -1.0489,-1.53516 488.41708,488.41708 0 0 0 -1.0527,-1.53125 488.41708,488.41708 0 0 0 -1.0586,-1.52734 488.41708,488.41708 0 0 0 -1.0644,-1.52344 488.41708,488.41708 0 0 0 -1.0704,-1.51953 488.41708,488.41708 0 0 0 -1.0761,-1.51367 488.41708,488.41708 0 0 0 -1.0821,-1.51172 488.41708,488.41708 0 0 0 -1.0879,-1.50781 488.41708,488.41708 0 0 0 -1.0937,-1.50196 488.41708,488.41708 0 0 0 -1.0996,-1.49804 488.41708,488.41708 0 0 0 -1.1035,-1.49414 488.41708,488.41708 0 0 0 -1.1114,-1.49024 488.41708,488.41708 0 0 0 -1.1171,-1.48633 488.41708,488.41708 0 0 0 -1.1211,-1.48047 488.41708,488.41708 0 0 0 -1.127,-1.47851 488.41708,488.41708 0 0 0 -1.1328,-1.47266 488.41708,488.41708 0 0 0 -1.1387,-1.46875 488.41708,488.41708 0 0 0 -1.1445,-1.46484 488.41708,488.41708 0 0 0 -1.1504,-1.45898 488.41708,488.41708 0 0 0 -1.1562,-1.45508 488.41708,488.41708 0 0 0 -1.1602,-1.45118 488.41708,488.41708 0 0 0 -1.166,-1.44726 488.41708,488.41708 0 0 0 -1.1719,-1.44336 488.41708,488.41708 0 0 0 -1.1777,-1.4375 488.41708,488.41708 0 0 0 -1.1836,-1.43359 488.41708,488.41708 0 0 0 -1.1875,-1.42774 488.41708,488.41708 0 0 0 -1.1934,-1.42383 488.41708,488.41708 0 0 0 -1.1992,-1.41992 488.41708,488.41708 0 0 0 -1.2051,-1.41601 488.41708,488.41708 0 0 0 -1.209,-1.41016 488.41708,488.41708 0 0 0 -1.2168,-1.40625 488.41708,488.41708 0 0 0 -1.2207,-1.40039 488.41708,488.41708 0 0 0 -1.2246,-1.39649 488.41708,488.41708 0 0 0 -1.2324,-1.39257 488.41708,488.41708 0 0 0 -1.2363,-1.38672 488.41708,488.41708 0 0 0 -1.2422,-1.38281 488.41708,488.41708 0 0 0 -1.2461,-1.37891 488.41708,488.41708 0 0 0 -1.252,-1.37305 488.41708,488.41708 0 0 0 -1.2578,-1.36718 488.41708,488.41708 0 0 0 -1.2636,-1.36524 488.41708,488.41708 0 0 0 -1.2676,-1.35742 488.41708,488.41708 0 0 0 -1.2735,-1.35352 488.41708,488.41708 0 0 0 -1.2773,-1.34961 488.41708,488.41708 0 0 0 -1.2832,-1.34375 488.41708,488.41708 0 0 0 -1.2891,-1.33984 488.41708,488.41708 0 0 0 -1.2929,-1.33398 488.41708,488.41708 0 0 0 -1.2989,-1.33008 488.41708,488.41708 0 0 0 -1.3027,-1.32422 488.41708,488.41708 0 0 0 -1.3086,-1.32031 488.41708,488.41708 0 0 0 -1.3144,-1.31446 488.41708,488.41708 0 0 0 -1.3184,-1.30859 488.41708,488.41708 0 0 0 -1.3242,-1.30469 488.41708,488.41708 0 0 0 -1.3281,-1.29883 488.41708,488.41708 0 0 0 -1.334,-1.29492 488.41708,488.41708 0 0 0 -1.3379,-1.28906 488.41708,488.41708 0 0 0 -1.3438,-1.28516 488.41708,488.41708 0 0 0 -1.3476,-1.27734 488.41708,488.41708 0 0 0 -1.3535,-1.27539 488.41708,488.41708 0 0 0 -1.35744,-1.26758 488.41708,488.41708 0 0 0 -1.36328,-1.26367 488.41708,488.41708 0 0 0 -1.36719,-1.25977 488.41708,488.41708 0 0 0 -1.37305,-1.25195 488.41708,488.41708 0 0 0 -1.37695,-1.24805 488.41708,488.41708 0 0 0 -1.38086,-1.24218 488.41708,488.41708 0 0 0 -1.38672,-1.23829 488.41708,488.41708 0 0 0 -1.39062,-1.23242 488.41708,488.41708 0 0 0 -1.39649,-1.22656 488.41708,488.41708 0 0 0 -1.40039,-1.2207 488.41708,488.41708 0 0 0 -1.40625,-1.2168 488.41708,488.41708 0 0 0 -1.4082,-1.21094 488.41708,488.41708 0 0 0 -1.41602,-1.20508 488.41708,488.41708 0 0 0 -1.41797,-1.20117 488.41708,488.41708 0 0 0 -1.42383,-1.19336 488.41708,488.41708 0 0 0 -1.42773,-1.18945 488.41708,488.41708 0 0 0 -1.43359,-1.18359 488.41708,488.41708 0 0 0 -1.43555,-1.17969 488.41708,488.41708 0 0 0 -1.44141,-1.17188 488.41708,488.41708 0 0 0 -1.44726,-1.16796 488.41708,488.41708 0 0 0 -1.44922,-1.16211 488.41708,488.41708 0 0 0 -1.45508,-1.15625 488.41708,488.41708 0 0 0 -1.45898,-1.1504 488.41708,488.41708 0 0 0 -1.46485,-1.14453 488.41708,488.41708 0 0 0 -1.46679,-1.14062 488.41708,488.41708 0 0 0 -1.47266,-1.13281 488.41708,488.41708 0 0 0 -1.47656,-1.12891 488.41708,488.41708 0 0 0 -1.48047,-1.12305 488.41708,488.41708 0 0 0 -1.48633,-1.11718 488.41708,488.41708 0 0 0 -1.48828,-1.11133 488.41708,488.41708 0 0 0 -1.49414,-1.10547 488.41708,488.41708 0 0 0 -1.49805,-1.10156 488.41708,488.41708 0 0 0 -1.50195,-1.09375 488.41708,488.41708 0 0 0 -1.50586,-1.08789 488.41708,488.41708 0 0 0 -1.50977,-1.08399 488.41708,488.41708 0 0 0 -1.51367,-1.07617 488.41708,488.41708 0 0 0 -1.51953,-1.07227 488.41708,488.41708 0 0 0 -1.52148,-1.0664 488.41708,488.41708 0 0 0 -1.52735,-1.0586 488.41708,488.41708 0 0 0 -1.53125,-1.05468 488.41708,488.41708 0 0 0 -1.5332,-1.04883 488.41708,488.41708 0 0 0 -1.53906,-1.04102 488.41708,488.41708 0 0 0 -1.54297,-1.03711 488.41708,488.41708 0 0 0 -1.54688,-1.03125 488.41708,488.41708 0 0 0 -1.54882,-1.02343 488.41708,488.41708 0 0 0 -1.55469,-1.01954 488.41708,488.41708 0 0 0 -1.5586,-1.01367 488.41708,488.41708 0 0 0 -1.5625,-1.00586 488.41708,488.41708 0 0 0 -1.56445,-1.00195 488.41708,488.41708 0 0 0 -1.57031,-0.99414 488.41708,488.41708 0 0 0 -1.57227,-0.99023 488.41708,488.41708 0 0 0 -1.57812,-0.98243 488.41708,488.41708 0 0 0 -1.58008,-0.97656 488.41708,488.41708 0 0 0 -1.58398,-0.9707 488.41708,488.41708 0 0 0 -1.58985,-0.96485 488.41708,488.41708 0 0 0 -1.5918,-0.95898 488.41708,488.41708 0 0 0 -1.5957,-0.95313 488.41708,488.41708 0 0 0 -1.59765,-0.94726 488.41708,488.41708 0 0 0 -1.60352,-0.94141 488.41708,488.41708 0 0 0 -1.60547,-0.93359 488.41708,488.41708 0 0 0 -1.61133,-0.92969 488.41708,488.41708 0 0 0 -1.61328,-0.92187 488.41708,488.41708 0 0 0 -1.61523,-0.91602 488.41708,488.41708 0 0 0 -1.6211,-0.91016 488.41708,488.41708 0 0 0 -1.62304,-0.90429 488.41708,488.41708 0 0 0 -1.62696,-0.89649 488.41708,488.41708 0 0 0 -1.63086,-0.89257 488.41708,488.41708 0 0 0 -1.63476,-0.88477 488.41708,488.41708 0 0 0 -1.63672,-0.87891 488.41708,488.41708 0 0 0 -1.64063,-0.87304 488.41708,488.41708 0 0 0 -1.64453,-0.86719 488.41708,488.41708 0 0 0 -1.64648,-0.85938 488.41708,488.41708 0 0 0 -1.65039,-0.85547 488.41708,488.41708 0 0 0 -1.6543,-0.84765 488.41708,488.41708 0 0 0 -1.65625,-0.8418 488.41708,488.41708 0 0 0 -1.66015,-0.83398 488.41708,488.41708 0 0 0 -1.66407,-0.83008 488.41708,488.41708 0 0 0 -1.66601,-0.82227 488.41708,488.41708 0 0 0 -1.66992,-0.8164 488.41708,488.41708 0 0 0 -1.67188,-0.8086 488.41708,488.41708 0 0 0 -1.67578,-0.80468 488.41708,488.41708 0 0 0 -1.67969,-0.79688 488.41708,488.41708 0 0 0 -1.68164,-0.79101 488.41708,488.41708 0 0 0 -1.68555,-0.78321 488.41708,488.41708 0 0 0 -1.6875,-0.77734 488.41708,488.41708 0 0 0 -1.6914,-0.77149 488.41708,488.41708 0 0 0 -1.69336,-0.76562 488.41708,488.41708 0 0 0 -1.69531,-0.75781 488.41708,488.41708 0 0 0 -1.69922,-0.75196 488.41708,488.41708 0 0 0 -1.70313,-0.74609 488.41708,488.41708 0 0 0 -1.70508,-0.74023 488.41708,488.41708 0 0 0 -1.70703,-0.73243 488.41708,488.41708 0 0 0 -1.71093,-0.72461 488.41708,488.41708 0 0 0 -1.71485,-0.7207 488.41708,488.41708 0 0 0 -1.71484,-0.71289 488.41708,488.41708 0 0 0 -1.71875,-0.70703 488.41708,488.41708 0 0 0 -1.72266,-0.69922 488.41708,488.41708 0 0 0 -1.72266,-0.69336 488.41708,488.41708 0 0 0 -1.72851,-0.6875 488.41708,488.41708 0 0 0 -1.72852,-0.67969 488.41708,488.41708 0 0 0 -1.73242,-0.67382 488.41708,488.41708 0 0 0 -1.73437,-0.66797 488.41708,488.41708 0 0 0 -1.73633,-0.66016 488.41708,488.41708 0 0 0 -1.74024,-0.6543 488.41708,488.41708 0 0 0 -1.74218,-0.64648 488.41708,488.41708 0 0 0 -1.74414,-0.64063 488.41708,488.41708 0 0 0 -1.7461,-0.63476 488.41708,488.41708 0 0 0 -1.75,-0.62695 488.41708,488.41708 0 0 0 -1.75195,-0.6211 488.41708,488.41708 0 0 0 -1.75391,-0.61328 488.41708,488.41708 0 0 0 -1.75586,-0.60742 488.41708,488.41708 0 0 0 -1.75976,-0.60156 488.41708,488.41708 0 0 0 -1.75977,-0.59375 488.41708,488.41708 0 0 0 -1.76367,-0.58594 488.41708,488.41708 0 0 0 -1.76562,-0.58203 488.41708,488.41708 0 0 0 -1.76758,-0.57227 488.41708,488.41708 0 0 0 -1.76953,-0.56836 488.41708,488.41708 0 0 0 -1.77149,-0.56054 488.41708,488.41708 0 0 0 -1.77344,-0.55274 488.41708,488.41708 0 0 0 -1.77734,-0.54687 488.41708,488.41708 0 0 0 -1.77734,-0.54102 488.41708,488.41708 0 0 0 -1.78125,-0.5332 488.41708,488.41708 0 0 0 -1.78125,-0.52539 488.41708,488.41708 0 0 0 -1.78516,-0.51953 488.41708,488.41708 0 0 0 -1.78516,-0.51368 488.41708,488.41708 0 0 0 -1.78906,-0.50586 488.41708,488.41708 0 0 0 -1.78906,-0.5 488.41708,488.41708 0 0 0 -1.79297,-0.49218 488.41708,488.41708 0 0 0 -1.79297,-0.48633 488.41708,488.41708 0 0 0 -1.79687,-0.47852 488.41708,488.41708 0 0 0 -1.79688,-0.47265 488.41708,488.41708 0 0 0 -1.79883,-0.46485 488.41708,488.41708 0 0 0 -1.80078,-0.45898 488.41708,488.41708 0 0 0 -1.80273,-0.45117 488.41708,488.41708 0 0 0 -1.80469,-0.44336 488.41708,488.41708 0 0 0 -1.80664,-0.43946 488.41708,488.41708 0 0 0 -1.80664,-0.42968 488.41708,488.41708 0 0 0 -1.81055,-0.42383 488.41708,488.41708 0 0 0 -1.81054,-0.41797 488.41708,488.41708 0 0 0 -1.8125,-0.41016 488.41708,488.41708 0 0 0 -1.81446,-0.40234 488.41708,488.41708 0 0 0 -1.81445,-0.39648 488.41708,488.41708 0 0 0 -1.81836,-0.39063 488.41708,488.41708 0 0 0 -1.81836,-0.38281 488.41708,488.41708 0 0 0 -1.82031,-0.375 488.41708,488.41708 0 0 0 -1.82031,-0.36914 488.41708,488.41708 0 0 0 -1.82227,-0.36133 488.41708,488.41708 0 0 0 -1.82422,-0.35547 488.41708,488.41708 0 0 0 -1.82617,-0.34766 488.41708,488.41708 0 0 0 -1.82617,-0.34179 488.41708,488.41708 0 0 0 -1.82813,-0.33399 488.41708,488.41708 0 0 0 -1.83008,-0.32617 488.41708,488.41708 0 0 0 -1.83007,-0.32031 488.41708,488.41708 0 0 0 -1.83204,-0.3125 488.41708,488.41708 0 0 0 -1.83398,-0.30664 488.41708,488.41708 0 0 0 -1.83398,-0.29883 488.41708,488.41708 0 0 0 -1.83594,-0.29297 488.41708,488.41708 0 0 0 -1.83594,-0.28516 488.41708,488.41708 0 0 0 -1.83789,-0.27929 488.41708,488.41708 0 0 0 -1.83789,-0.26953 488.41708,488.41708 0 0 0 -1.83984,-0.26563 488.41708,488.41708 0 0 0 -1.83985,-0.25586 488.41708,488.41708 0 0 0 -1.84179,-0.25195 488.41708,488.41708 0 0 0 -1.8418,-0.24219 488.41708,488.41708 0 0 0 -1.84375,-0.23633 488.41708,488.41708 0 0 0 -1.84375,-0.22851 488.41708,488.41708 0 0 0 -1.8457,-0.22266 488.41708,488.41708 0 0 0 -1.84571,-0.21484 488.41708,488.41708 0 0 0 -1.8457,-0.20899 488.41708,488.41708 0 0 0 -1.84766,-0.20117 488.41708,488.41708 0 0 0 -1.84961,-0.19336 488.41708,488.41708 0 0 0 -1.84765,-0.1875 488.41708,488.41708 0 0 0 -1.84961,-0.17969 488.41708,488.41708 0 0 0 -1.85156,-0.17382 488.41708,488.41708 0 0 0 -1.84961,-0.16602 488.41708,488.41708 0 0 0 -1.85157,-0.1582 488.41708,488.41708 0 0 0 -1.85351,-0.15235 488.41708,488.41708 0 0 0 -1.85156,-0.14453 488.41708,488.41708 0 0 0 -1.85352,-0.13867 488.41708,488.41708 0 0 0 -1.85352,-0.12891 488.41708,488.41708 0 0 0 -1.85546,-0.125 488.41708,488.41708 0 0 0 -1.85352,-0.11718 488.41708,488.41708 0 0 0 -1.85547,-0.10938 488.41708,488.41708 0 0 0 -1.85547,-0.10156 488.41708,488.41708 0 0 0 -1.85547,-0.0957 488.41708,488.41708 0 0 0 -1.85742,-0.0879 488.41708,488.41708 0 0 0 -1.85547,-0.082 488.41708,488.41708 0 0 0 -1.85742,-0.0742 488.41708,488.41708 0 0 0 -1.85742,-0.0664 488.41708,488.41708 0 0 0 -1.85742,-0.0606 488.41708,488.41708 0 0 0 -1.85742,-0.0527 488.41708,488.41708 0 0 0 -1.85743,-0.0469 488.41708,488.41708 0 0 0 -1.85937,-0.0391 488.41708,488.41708 0 0 0 -1.85742,-0.0312 488.41708,488.41708 0 0 0 -1.85743,-0.0234 488.41708,488.41708 0 0 0 -1.85937,-0.0195 488.41708,488.41708 0 0 0 -1.85742,-0.01 488.41708,488.41708 0 0 0 -1.85938,-0.004 z m 0.002,64.25391 c 235.02096,0 424.16205,189.14114 424.16205,424.16211 0,235.02096 -189.14109,424.16404 -424.16205,424.16404 -235.02097,0 -424.16407,-189.14308 -424.16407,-424.16404 0,-235.02097 189.1431,-424.16211 424.16407,-424.16211 z"
       transform="matrix(0.26458333,0,0,0.26458333,29.29154,18.4032)" />
    <rect
       style="opacity:0.996;fill:#222222;fill-opacity:0.996078;stroke-width:6.8;stroke-linecap:square;paint-order:markers stroke fill"
       id="rect835-3"
       width="103.16462"
       height="103.16462"
       x="231.41821"
       y="155.47852" />
    <rect
       style="opacity:0.996;fill:#ffff00;fill-opacity:0.996078;stroke-width:4.36452;stroke-linecap:square;paint-order:markers stroke fill"
       id="rect852-6-3"
       width="17"
       height="103.16462"
       x="-215.56082"
       y="231.41821"
       transform="rotate(-90)" />
    <rect
       style="opacity:0.996;fill:#222222;fill-opacity:0.996078;stroke-width:6.8;stroke-linecap:square;paint-order:markers stroke fill"
       id="rect835"
       width="103.16462"
       height="103.16462"
       x="171.30106"
       y="112.43105" />
    <rect
       style="opacity:0.996;fill:#ffff00;fill-opacity:0.996078;stroke-width:4.36453;stroke-linecap:square;paint-order:markers stroke fill"
       id="rect852-6"
       width="17"
       height="103.16462"
       x="-172.51337"
       y="171.30106"
       transform="rotate(-90)" />
    <rect
       style="opacity:0.996;fill:#ffff00;fill-opacity:0.996078;stroke-width:4.36452;stroke-linecap:square;paint-order:markers stroke fill"
       id="rect852-6-5"
       width="17"
       height="103.16462"
       x="-231.38335"
       y="-215.59567"
       transform="scale(-1)" />
    <rect
       style="opacity:0.996;fill:#e3dbdb;fill-opacity:0.996078;stroke-width:5.6803;stroke-linecap:square;paint-order:markers stroke fill"
       id="rect852-6-5-5-2"
       width="10.776585"
       height="275.65723"
       x="-171.30106"
       y="-353.42429"
       transform="scale(-1)" />
    <rect
       style="opacity:0.996;fill:#1a1a1a;fill-opacity:0.996078;stroke-width:7.0157;stroke-linecap:square;paint-order:markers stroke fill"
       id="rect852-6-5-5-2-9"
       width="17"
       height="266.56287"
       x="-160.52448"
       y="-348.87711"
       transform="scale(-1)" />
    <path
       style="fill:#aa0000;stroke:#000000;stroke-width:0.251237px;stroke-linecap:butt;stroke-linejoin:miter;stroke-opacity:1"
       d="M 334.58451,155.46665 V 258.65498 L 295.77913,207.06082 Z"
       id="path974"
       sodipodi:nodetypes="cccc" />
    <rect
       style="opacity:0.996;fill:#e3dbdb;fill-opacity:0.996078;stroke-width:4.21508;stroke-linecap:square;paint-order:markers stroke fill"
       id="rect852-6-5-5-2-1"
       width="10.776585"
       height="151.78836"
       x="-285.24225"
       y="-258.6431"
       transform="scale(-1)" />
    <rect
       style="opacity:0.996;fill:#e3dbdb;fill-opacity:0.996078;stroke-width:3.47498;stroke-linecap:square;paint-order:markers stroke fill"
       id="rect852-6-5-5-2-1-2"
       width="10.776585"
       height="103.16462"
       x="215.59567"
       y="-334.58282"
       transform="rotate(90)" />
    <rect
       style="opacity:0.996;fill:#e3dbdb;fill-opacity:0.996078;stroke-width:2.65269;stroke-linecap:square;paint-order:markers stroke fill"
       id="rect852-6-5-5-2-1-7"
       width="10.776585"
       height="60.117157"
       x="-356.43231"
       y="30.546156"
       transform="rotate(-126.75939)" />
    <path
       style="fill:#f4d7d7;stroke:#000000;stroke-width:0.264583px;stroke-linecap:butt;stroke-linejoin:miter;stroke-opacity:1"
       d="m 231.41821,258.64312 43.04745,-32.27087"
       id="path1021" />
    <rect
       style="opacity:0.996;fill:#e3dbdb;fill-opacity:0.996078;stroke-width:3.82077;stroke-linecap:square;paint-order:markers stroke fill"
       id="rect852-6-5-5-2-1-2-0"
       width="10.776585"
       height="124.7178"
       x="101.65446"
       y="-285.24225"
       transform="rotate(90)" />
    <rect
       style="opacity:0.996;fill:#e3dbdb;fill-opacity:0.996078;stroke-width:3.47498;stroke-linecap:square;paint-order:markers stroke fill"
       id="rect852-6-5-5-2-1-2-6"
       width="10.776585"
       height="103.16462"
       x="360.84344"
       y="-115.47401"
       transform="rotate(36.947775)" />
    <rect
       style="opacity:0.996;fill:#e3dbdb;fill-opacity:0.996078;stroke-width:3.47498;stroke-linecap:square;paint-order:markers stroke fill"
       id="rect1408"
       width="10.776585"
       height="103.16462"
       x="111.92044"
       y="-446.4332"
       transform="matrix(0.79918373,-0.60108682,-0.60108682,-0.79918373,0,0)" />
    <rect
       style="opacity:0.996;fill:#e3dbdb;fill-opacity:0.996078;stroke-width:3.82077;stroke-linecap:square;paint-order:markers stroke fill"
       id="rect852-6-5-5-2-1-2-0-2"
       width="10.776585"
       height="124.7178"
       x="258.6431"
       y="-342.21286"
       transform="rotate(90)" />
    <rect
       style="opacity:0.996;fill:#e3dbdb;fill-opacity:0.996078;stroke-width:2.50769;stroke-linecap:square;paint-order:markers stroke fill"
       id="rect852-6-5-5-2-6"
       width="10.776585"
       height="53.724712"
       x="-231.33194"
       y="-269.41968"
       transform="scale(-1)" />
    <rect
       style="opacity:0.996;fill:#e3dbdb;fill-opacity:0.996078;stroke-width:3.47498;stroke-linecap:square;paint-order:markers stroke fill"
       id="rect852-6-5-5-2-18"
       width="10.776585"
       height="103.16462"
       x="-345.49124"
       y="-258.64285"
       transform="scale(-1)" />
    <rect
       style="opacity:0.996;fill:#e3dbdb;fill-opacity:0.996078;stroke-width:3.47498;stroke-linecap:square;paint-order:markers stroke fill"
       id="rect852-6-5-5-2-1-2-7"
       width="10.776585"
       height="103.16462"
       x="144.69006"
       y="-386.16681"
       transform="rotate(90)" />
    <rect
       style="opacity:0.996;fill:#e3dbdb;fill-opacity:0.996078;stroke-width:5.58582;stroke-linecap:square;paint-order:markers stroke fill"
       id="rect852-6-5-5-2-92"
       width="10.776585"
       height="266.56287"
       x="-143.52448"
       y="-348.87711"
       transform="scale(-1)" />
  </g>
</svg>
